<svg xmlns="http://www.w3.org/2000/svg" viewBox="0 0 512 512">
  <style>
    .st0 {
      fill: #ffffff;
    }
    .st1 {
      fill: #6d6d6d;
    }
  </style>
  <path
    class="st0"
    d="M 114.736 342.834 C 114.736 342.834 114.736 342.834 114.736 342.834 C 115.959 351.419 117.367 360.214 119.251 369.268 C 117.367 360.214 115.959 351.419 114.736 342.834 Z M 114.788 342.818 C 118.539 369.136 124.002 397.432 139.66 429.091 C 139.862 429.519 140.087 429.927 140.291 430.355 C 142.33 434.412 144.573 438.469 147.019 442.485 C 156.069 457.387 167.65 471.616 179.921 482.807 C 189.441 491.472 199.37 498.322 209.4 503.194 C 220.857 508.74 232.497 511.674 243.994 511.959 C 245.218 511.981 246.441 512 247.643 512 C 268.988 512 286.398 507.353 302.154 497.506 C 317.791 487.721 332.408 472.595 349.513 448.437 C 354.139 441.893 358.278 435.309 361.927 428.846 C 364.842 423.709 367.471 418.634 369.816 413.7 C 376.381 399.94 380.886 387.3 383.862 377.393 C 387.98 363.734 389.896 353.235 390.712 347.975 C 393.137 348.139 396.522 348.139 400.334 347.405 C 407.265 346.101 417.132 342.104 424.675 330.546 C 430.342 321.881 436.029 303.941 438.822 285.942 C 440.759 273.363 442.797 250.551 434.46 239.115 C 431.83 235.547 427.264 231.796 419.721 232.327 L 423.003 193.124 C 423.003 193.104 423.003 193.063 423.003 193.043 C 423.003 193.002 423.003 192.983 423.003 192.961 C 423.065 191.656 423.961 173.676 421.963 151.414 C 419.211 120.734 412.463 97.881 401.924 83.489 C 382.884 57.476 360.378 37.172 335.017 23.106 C 310.941 9.754 284.379 2.047 256.063 0.213 C 231.743 -1.377 203.324 6.003 176.09 20.986 C 149.465 35.623 126.898 55.764 112.526 77.72 C 105.778 88.035 100.396 100.959 96.543 116.168 C 93.486 128.215 91.345 141.731 90.223 156.328 C 88.328 180.771 89.857 199.689 89.959 200.994 L 89.959 201.013 L 91.59 233.957 C 83.536 234.365 77.604 238.788 74.343 246.964 C 68.268 262.172 72.957 286.084 76.279 298.988 C 80.276 314.441 87.492 333.298 93.893 338.15 C 101.253 343.715 107.817 344.082 112.037 343.41 C 113.015 343.246 113.912 343.022 114.728 342.778 C 114.73 342.797 114.733 342.815 114.736 342.834 C 114.753 342.829 114.771 342.824 114.788 342.818 Z M 119.251 369.268 C 123.139 387.953 129.06 407.739 139.599 429.051 C 129.06 407.739 123.139 387.953 119.251 369.268 Z"
  />
  <g>
    <path
      class="st1"
      d="M 110.223 169.598 L 108.204 253.731 C 105.35 242.702 101.559 240.501 96.115 237.178 L 93.669 197.365 L 110.223 169.598 Z"
    />
    <path
      class="st1"
      d="M 108.204 257.36 C 106.573 257.36 105.106 256.259 104.698 254.648 C 102.251 245.189 99.48 243.497 94.444 240.419 L 94.219 240.276 C 93.2 239.665 92.568 238.585 92.487 237.402 L 90.041 197.589 C 90 196.854 90.163 196.141 90.55 195.509 L 107.103 167.723 C 107.939 166.317 109.631 165.644 111.221 166.092 C 112.811 166.541 113.892 168.008 113.851 169.659 L 111.833 253.792 C 111.792 255.607 110.426 257.095 108.612 257.298 C 108.49 257.36 108.347 257.36 108.204 257.36 Z M 99.622 235.078 C 101.497 236.26 103.271 237.463 104.923 239.156 L 106.268 183.319 L 97.36 198.261 L 99.622 235.078 Z"
    />
    <path
      d="M 98.868 238.891 C 98.44 240.154 97.319 241.132 95.932 241.317 C 95.83 241.336 95.729 241.336 95.626 241.336 C 95.565 241.336 95.504 241.336 95.443 241.336 C 93.527 241.336 91.916 239.828 91.814 237.891 L 91.631 233.977 L 90 201.034 L 90 201.013 L 90 200.931 C 89.98 200.442 90.041 199.974 90.204 199.545 C 90.672 198.22 91.896 197.242 93.384 197.139 C 93.404 197.139 93.424 197.139 93.445 197.139 C 93.588 197.139 93.71 197.139 93.853 197.139 C 94.383 197.18 94.893 197.324 95.341 197.568 C 96.421 198.139 97.196 199.259 97.257 200.586 L 97.298 201.584 L 99.051 236.709 L 99.092 237.525 C 99.071 238.014 99.01 238.482 98.868 238.891 Z"
    />
  </g>
  <g>
    <path
      class="st1"
      d="M 389.652 161.2 C 389.652 161.2 398.459 230.206 401.007 256.972 C 403.352 246.473 405.512 238.503 415.705 236.709 L 419.497 187.824 L 389.652 161.2 Z"
    />
    <path
      class="st1"
      d="M 401.007 260.601 C 400.926 260.601 400.864 260.601 400.782 260.601 C 399.009 260.499 397.561 259.093 397.399 257.319 C 394.891 230.919 386.146 162.361 386.064 161.669 C 385.881 160.159 386.635 158.713 387.981 157.998 C 389.326 157.285 390.957 157.489 392.078 158.509 L 421.943 185.133 C 422.779 185.887 423.227 186.988 423.146 188.13 L 419.355 237.014 C 419.232 238.666 417.989 240.011 416.358 240.296 C 408.916 241.601 407.041 246.617 404.554 257.768 C 404.167 259.418 402.699 260.601 401.007 260.601 Z M 394.463 170.353 C 396.44 186.09 400.396 217.913 402.943 240.705 C 405.044 237.626 407.979 235.139 412.301 233.793 L 415.767 189.332 L 394.463 170.353 Z"
    />
    <path
      d="M 423.024 192.981 C 423.024 193.002 423.024 193.022 423.024 193.062 C 423.024 193.083 423.024 193.124 423.024 193.144 L 419.742 232.347 L 419.355 236.974 L 419.355 237.014 C 419.355 237.055 419.355 237.096 419.334 237.137 C 419.334 237.178 419.334 237.198 419.314 237.239 C 419.314 237.28 419.314 237.32 419.293 237.361 C 419.273 237.422 419.273 237.484 419.252 237.565 C 419.252 237.606 419.232 237.647 419.232 237.667 C 419.15 237.932 419.049 238.197 418.926 238.441 C 418.906 238.482 418.885 238.523 418.844 238.564 C 418.844 238.564 418.844 238.564 418.844 238.564 C 418.824 238.605 418.804 238.645 418.784 238.666 C 418.763 238.706 418.743 238.727 418.722 238.747 C 418.702 238.788 418.661 238.85 418.62 238.891 C 418.6 238.931 418.559 238.971 418.539 239.012 C 418.457 239.115 418.355 239.216 418.274 239.298 C 418.254 239.318 418.213 239.339 418.192 239.38 C 418.152 239.421 418.111 239.461 418.07 239.481 C 418.009 239.542 417.948 239.583 417.866 239.645 C 417.825 239.665 417.805 239.686 417.764 239.706 C 417.601 239.828 417.418 239.91 417.234 239.991 C 417.153 240.031 417.071 240.072 416.969 240.093 C 416.908 240.113 416.868 240.134 416.806 240.154 C 416.786 240.154 416.765 240.175 416.745 240.175 C 416.745 240.175 416.745 240.175 416.724 240.175 C 416.704 240.175 416.664 240.195 416.643 240.195 C 416.623 240.195 416.582 240.216 416.562 240.216 C 416.541 240.216 416.5 240.236 416.48 240.236 C 416.459 240.236 416.439 240.256 416.418 240.256 C 416.398 240.256 416.378 240.256 416.358 240.276 C 416.338 240.276 416.317 240.296 416.276 240.296 C 416.276 240.296 416.256 240.296 416.256 240.296 C 416.215 240.296 416.174 240.317 416.153 240.317 C 416.133 240.317 416.113 240.317 416.113 240.317 C 416.073 240.317 416.052 240.317 416.011 240.317 C 415.929 240.317 415.848 240.317 415.767 240.317 L 415.746 240.317 C 415.644 240.317 415.563 240.317 415.461 240.296 C 415.42 240.296 415.358 240.276 415.317 240.276 C 415.278 240.276 415.237 240.256 415.196 240.256 C 415.134 240.256 415.093 240.236 415.033 240.236 C 414.992 240.236 414.951 240.216 414.89 240.216 C 414.787 240.195 414.707 240.175 414.604 240.134 C 414.563 240.113 414.503 240.113 414.462 240.093 C 414.38 240.052 414.278 240.011 414.197 239.971 C 414.156 239.951 414.115 239.93 414.074 239.91 C 413.992 239.869 413.932 239.828 413.85 239.787 C 413.83 239.787 413.83 239.766 413.809 239.766 C 413.727 239.726 413.647 239.665 413.585 239.604 C 413.544 239.583 413.503 239.542 413.483 239.522 C 413.462 239.522 413.442 239.501 413.442 239.481 C 413.402 239.44 413.361 239.421 413.32 239.38 C 413.279 239.339 413.218 239.298 413.177 239.257 C 413.137 239.216 413.117 239.196 413.076 239.156 C 412.994 239.074 412.932 238.992 412.872 238.91 C 412.831 238.87 412.811 238.829 412.77 238.768 C 412.729 238.727 412.708 238.686 412.688 238.626 C 412.626 238.523 412.566 238.441 412.525 238.34 C 412.505 238.299 412.484 238.238 412.464 238.197 C 412.443 238.136 412.402 238.075 412.382 238.014 C 412.361 237.973 412.361 237.932 412.342 237.891 C 412.322 237.871 412.322 237.83 412.322 237.81 C 412.301 237.769 412.301 237.728 412.281 237.687 C 412.281 237.687 412.281 237.687 412.281 237.667 C 412.24 237.525 412.199 237.361 412.178 237.219 C 412.178 237.157 412.158 237.117 412.158 237.055 C 412.158 236.995 412.137 236.933 412.137 236.872 C 412.137 236.77 412.137 236.648 412.137 236.546 C 412.137 236.546 412.137 236.546 412.137 236.546 C 412.137 236.505 412.137 236.444 412.158 236.403 L 412.158 236.281 L 412.158 236.26 L 415.685 194.143 L 415.828 192.532 C 415.909 191.595 416.338 190.78 416.948 190.188 C 417.601 189.576 418.498 189.19 419.436 189.21 C 419.477 189.21 419.517 189.21 419.558 189.21 C 419.62 189.21 419.66 189.21 419.721 189.21 C 421.23 189.332 422.432 190.371 422.881 191.717 C 422.983 192.125 423.044 192.553 423.024 192.981 Z"
    />
  </g>
  <g>
    <path
      d="M 110.223 169.598 L 93.588 200.769 C 93.588 200.769 86.942 123.485 115.564 79.758 C 144.186 36.03 206.281 0.661 255.839 3.882 C 310.025 7.408 360.398 32.952 399.009 85.691 C 423.472 119.083 419.395 192.859 419.395 192.859 L 389.652 161.22 C 389.652 161.22 378.827 103.773 372.201 90.277 C 365.556 76.762 353.773 71.053 325.213 70.626 C 296.652 70.197 232.803 69.829 205.608 65.406 C 178.413 60.982 144.798 59.984 130.873 83.651 C 107.267 123.669 110.223 169.598 110.223 169.598 Z"
    />
    <path
      d="M 421.984 151.455 C 419.212 120.775 412.464 97.921 401.945 83.53 C 382.905 57.537 360.398 37.212 335.038 23.147 C 310.962 9.793 284.4 2.088 256.084 0.252 C 231.763 -1.338 203.365 6.063 176.11 21.026 C 149.486 35.663 126.898 55.804 112.546 77.76 C 105.799 88.076 100.417 101 96.565 116.207 C 93.506 128.256 91.386 141.772 90.245 156.369 C 88.349 180.811 89.877 199.709 89.98 201.034 L 89.98 201.054 C 89.98 201.075 89.98 201.075 89.98 201.075 C 90.02 201.543 90.142 201.971 90.347 202.379 C 90.836 203.357 91.753 204.092 92.854 204.316 C 93.098 204.357 93.343 204.397 93.588 204.397 C 93.771 204.397 93.934 204.377 94.098 204.357 C 95.219 204.193 96.238 203.521 96.789 202.482 L 97.257 201.605 L 97.522 201.095 L 106.227 184.806 L 110.019 177.691 L 113.403 171.331 C 113.647 170.863 113.791 170.353 113.832 169.844 C 113.832 169.7 113.832 169.538 113.832 169.394 C 113.832 169.394 113.832 169.353 113.832 169.293 C 113.77 168.151 113.261 157.143 115.299 141.935 C 117.276 127.277 122.128 105.567 133.972 85.446 C 144.124 68.219 167.364 62.817 205.017 68.954 C 229.602 72.949 283.054 73.662 315.019 74.091 C 318.73 74.132 322.134 74.192 325.151 74.233 C 354.751 74.681 363.619 81.042 368.96 91.867 C 375.157 104.486 385.493 158.692 386.085 161.75 C 386.105 161.831 386.105 161.872 386.105 161.872 C 386.227 162.545 386.553 163.177 387.022 163.686 L 390.447 167.315 L 394.667 171.8 L 415.42 193.878 L 415.664 194.123 L 416.765 195.305 C 417.336 195.917 418.07 196.284 418.865 196.406 C 418.865 196.406 418.865 196.406 418.865 196.406 C 419.456 196.488 420.068 196.447 420.659 196.223 C 421.556 195.896 422.249 195.244 422.656 194.449 C 422.881 194.021 423.003 193.532 423.044 193.043 C 423.044 193.022 423.044 193.002 423.044 192.961 C 423.085 191.697 423.981 173.716 421.984 151.455 Z M 415.991 183.929 L 393.016 159.487 C 392.995 159.426 392.995 159.364 392.975 159.325 C 391.323 150.701 381.763 101.51 375.443 88.667 C 367.879 73.296 354.283 67.424 325.252 66.976 C 322.236 66.935 318.831 66.874 315.121 66.834 C 283.381 66.405 230.235 65.712 206.199 61.798 C 188.77 58.965 174.54 58.495 162.716 60.371 C 146.347 62.981 134.584 70.176 127.755 81.776 C 115.258 102.997 110.182 125.789 108.123 141.16 C 106.268 155.023 106.451 165.338 106.573 168.702 C 106.573 168.743 106.573 168.763 106.573 168.803 L 96.645 187.415 C 96.625 186.784 96.625 186.111 96.604 185.439 C 96.503 177.814 96.645 167.845 97.481 156.858 C 99.194 134.698 104.27 103.691 118.622 81.776 C 146.184 39.659 203.712 7.327 249.601 7.327 C 251.639 7.327 253.637 7.388 255.615 7.511 C 311.697 11.159 360.276 38.925 396.094 87.831 C 413.483 111.581 415.929 157.53 416.011 179.852 C 416.011 181.3 415.991 182.666 415.991 183.929 Z"
    />
  </g>
  <g>
    <path
      d="M 216.433 206.191 C 198.024 203.48 163.817 198.608 143.697 213.57 C 134.074 221.583 144.838 198.526 158.639 192.879 C 172.461 187.232 205.486 190.371 210.807 191.86 C 217.962 193.858 218.88 200.545 218.839 204.152 C 218.798 205.417 217.676 206.375 216.433 206.191 Z"
    />
    <path
      d="M 140.72 218.872 C 140.088 218.872 139.455 218.749 138.804 218.422 C 137.214 217.648 136.316 216.017 136.378 214.061 C 136.5 210.575 139.741 205.233 142.738 201.381 C 145.287 198.119 150.546 192.247 157.252 189.496 C 171.828 183.522 205.629 186.62 211.764 188.354 C 218.676 190.291 222.549 196.059 222.447 204.193 C 222.427 205.845 221.693 207.394 220.429 208.454 C 219.165 209.514 217.514 210.004 215.883 209.759 C 207.198 208.474 194.07 206.538 180.778 206.864 C 165.733 207.211 154.012 210.431 145.919 216.405 C 144.899 217.261 142.922 218.872 140.72 218.872 Z M 183.388 193.246 C 174.5 193.246 165.509 193.98 160.005 196.223 C 156.254 197.751 152.197 201.116 148.61 205.641 C 148.304 206.028 148.018 206.416 147.733 206.783 C 156.377 202.318 167.405 199.912 180.615 199.606 C 193.622 199.3 206.24 201.013 215.129 202.318 C 214.761 198.567 212.988 196.223 209.829 195.325 C 207.035 194.571 195.313 193.246 183.388 193.246 Z M 216.943 202.603 C 216.943 202.603 216.943 202.603 216.943 202.603 C 216.943 202.603 216.943 202.603 216.943 202.603 Z"
    />
  </g>
  <g>
    <path
      d="M 279.1 204.336 C 278.875 206.253 280.546 207.863 282.463 207.557 C 301.055 204.622 342.724 204.092 357.625 218.566 C 373.567 234.079 358.747 203.337 344.11 195.774 C 329.473 188.21 296.468 190.046 287.438 191.656 C 281.403 192.757 279.609 199.791 279.1 204.336 Z"
    />
    <path
      d="M 363.68 226.536 C 361.152 226.536 358.441 224.457 355.078 221.195 C 349.166 215.446 337.403 211.635 321.094 210.166 C 306.151 208.821 291.229 209.86 283.013 211.165 C 280.975 211.491 278.956 210.859 277.448 209.412 C 275.96 207.985 275.247 205.988 275.471 203.928 C 276.51 194.857 280.526 189.231 286.785 188.109 C 294.695 186.702 329.555 184.215 345.761 192.573 C 352.57 196.08 358.34 203.236 361.173 207.17 C 362.865 209.514 368.349 217.547 368.125 222.113 C 368.023 224.029 366.983 225.558 365.352 226.211 C 364.781 226.414 364.231 226.536 363.68 226.536 Z M 306.416 202.256 C 311.35 202.256 316.528 202.461 321.746 202.93 C 337.117 204.316 348.697 207.638 356.28 212.837 C 355.873 212.245 355.445 211.635 354.996 211.023 C 350.898 205.396 346.311 201.034 342.439 199.015 C 328.861 192.002 296.488 193.735 288.069 195.244 C 284.603 195.855 283.299 200.545 282.81 203.827 C 288.783 202.95 297.141 202.256 306.416 202.256 Z M 282.687 204.744 C 282.687 204.744 282.687 204.744 282.687 204.744 C 282.687 204.744 282.687 204.744 282.687 204.744 Z M 279.1 204.336 Z"
    />
  </g>
  <g>
    <circle cx="183.489" cy="243.192" r="13.638"></circle>
    <path
      d="M 183.51 260.459 C 183.368 260.459 183.224 260.459 183.082 260.459 C 178.475 260.357 174.174 258.44 170.994 255.117 C 167.812 251.774 166.121 247.412 166.222 242.784 C 166.325 238.176 168.241 233.875 171.563 230.695 C 174.907 227.515 179.27 225.823 183.898 225.925 C 188.505 226.026 192.806 227.943 195.986 231.266 C 199.166 234.609 200.859 238.971 200.756 243.599 C 200.655 248.207 198.739 252.508 195.415 255.688 C 192.174 258.787 187.954 260.459 183.51 260.459 Z M 183.489 233.182 C 180.901 233.182 178.475 234.161 176.579 235.954 C 174.642 237.81 173.541 240.296 173.48 242.967 C 173.419 245.638 174.398 248.186 176.232 250.123 C 178.067 252.06 180.574 253.161 183.245 253.221 C 188.77 253.344 193.357 248.981 193.499 243.457 C 193.56 240.786 192.581 238.238 190.747 236.301 C 188.912 234.364 186.404 233.263 183.734 233.203 C 183.653 233.182 183.571 233.182 183.489 233.182 Z"
    />
  </g>
  <g>
    <circle cx="315.203" cy="246.352" r="13.638"></circle>
    <path
      d="M 315.203 263.618 C 315.06 263.618 314.918 263.618 314.774 263.618 C 305.255 263.394 297.692 255.464 297.936 245.943 C 298.037 241.336 299.954 237.035 303.277 233.855 C 306.621 230.675 310.982 228.982 315.61 229.085 C 320.218 229.187 324.519 231.102 327.699 234.426 C 330.88 237.769 332.571 242.132 332.47 246.759 C 332.225 256.137 324.539 263.618 315.203 263.618 Z M 315.183 236.342 C 312.593 236.342 310.167 237.32 308.271 239.115 C 306.335 240.97 305.234 243.457 305.173 246.128 C 305.05 251.652 309.413 256.238 314.938 256.382 C 315.019 256.382 315.101 256.382 315.183 256.382 C 320.585 256.382 325.049 252.039 325.192 246.617 C 325.192 246.617 325.192 246.617 325.192 246.617 C 325.252 243.946 324.274 241.397 322.44 239.461 C 320.605 237.525 318.098 236.424 315.427 236.362 C 315.345 236.342 315.264 236.342 315.183 236.342 Z"
    />
  </g>
  <g>
    <path
      d="M 88.104 272.548 C 86.27 272.548 84.7 271.161 84.495 269.306 C 83.924 263.965 85.781 254.995 90.754 252.06 C 93.16 250.632 95.932 250.795 98.358 252.508 C 99.989 253.65 100.396 255.912 99.235 257.563 C 98.093 259.194 95.85 259.603 94.219 258.481 C 93.017 259.541 91.264 264.332 91.713 268.552 C 91.916 270.549 90.489 272.324 88.491 272.548 C 88.369 272.548 88.226 272.548 88.104 272.548 Z"
    />
    <path
      d="M 104.311 316.948 C 104.046 316.948 103.781 316.948 103.516 316.927 C 99.357 316.642 89.287 313.462 85.76 290.405 C 85.454 288.428 86.82 286.573 88.797 286.267 C 90.775 285.961 92.63 287.327 92.935 289.305 C 95.117 303.534 99.948 309.14 103.761 309.649 C 104.942 309.813 105.84 309.466 106.37 309.119 C 102.516 306.673 99.745 302.127 98.541 296.195 C 97.461 290.854 97.645 283.393 100.601 279.56 C 101.824 277.97 104.107 277.685 105.697 278.908 C 107.287 280.131 107.573 282.414 106.349 284.004 C 105.534 285.064 104.617 289.55 105.656 294.768 C 106.472 298.824 108.225 301.862 110.467 303.146 C 113.382 304.798 114.666 307.794 113.77 310.771 C 112.69 314.38 108.714 316.948 104.311 316.948 Z"
    />
  </g>
  <g>
    <path
      d="M 421.576 293.402 C 421.27 293.402 420.945 293.362 420.618 293.28 C 418.682 292.75 417.54 290.752 418.07 288.835 C 420.639 279.438 421.637 269.857 420.883 261.865 C 420.129 253.833 417.968 251.244 417.397 250.959 C 415.461 251.366 413.524 250.123 413.117 248.166 C 412.688 246.208 413.932 244.273 415.888 243.864 C 418.498 243.314 421.026 244.17 423.024 246.27 C 429.303 252.896 430.179 272.018 425.082 290.731 C 424.634 292.342 423.186 293.402 421.576 293.402 Z"
    />
    <path
      d="M 398.968 324.369 C 395.585 324.369 394.32 322.411 393.933 321.514 C 392.404 318.069 395.482 314.645 398.356 312.034 C 408.203 303.065 405.003 293.606 400.558 287.245 C 399.416 285.594 399.825 283.332 401.456 282.19 C 403.107 281.048 405.369 281.456 406.511 283.087 C 409.549 287.449 411.424 292.138 411.934 296.623 C 412.647 302.963 410.691 308.998 406.226 314.277 C 406.511 314.115 406.796 313.93 407.082 313.747 C 411.036 311.178 413.667 308.121 414.278 305.328 C 414.707 303.37 416.664 302.148 418.62 302.575 C 420.577 303.004 421.8 304.961 421.372 306.918 C 420.109 312.544 415.583 316.703 412.016 319.191 C 408.04 321.962 403.29 323.981 399.946 324.307 C 399.58 324.348 399.274 324.369 398.968 324.369 Z"
    />
  </g>
  <g>
    <path
      d="M 244.872 376.818 C 244.851 376.818 244.831 376.818 244.811 376.818 C 243.2 376.763 241.935 375.021 241.956 372.869 L 242.282 350.4 C 242.303 348.275 243.607 346.588 245.177 346.588 C 245.197 346.588 245.218 346.588 245.238 346.588 C 246.849 346.641 248.113 348.385 248.093 350.536 L 247.766 373.004 C 247.746 375.129 246.462 376.818 244.872 376.818 Z"
    />
    <path
      d="M 227.727 359.463 C 227.626 359.463 227.503 359.463 227.4 359.438 C 225.81 359.21 224.669 357.427 224.853 355.443 L 225.28 350.735 C 225.465 348.75 226.891 347.325 228.481 347.554 C 230.071 347.783 231.213 349.564 231.03 351.55 L 230.601 356.257 C 230.438 358.089 229.175 359.463 227.727 359.463 Z"
    />
    <path
      d="M 226.32 375.725 C 226.219 375.725 226.116 375.725 226.014 375.699 C 224.424 375.495 223.263 373.714 223.425 371.729 L 223.955 365.393 C 224.119 363.407 225.545 361.957 227.135 362.161 C 228.725 362.365 229.888 364.146 229.725 366.13 L 229.195 372.467 C 229.031 374.351 227.788 375.725 226.32 375.725 Z"
    />
    <path
      d="M 217.881 377.327 C 217.758 377.327 217.616 377.327 217.493 377.302 C 215.903 377.047 214.782 375.215 215.006 373.231 L 217.371 351.193 C 217.575 349.208 219.042 347.809 220.632 348.089 C 222.223 348.342 223.344 350.175 223.119 352.16 L 220.755 374.197 C 220.551 376.03 219.307 377.327 217.881 377.327 Z"
    />
    <path
      d="M 210.889 368.599 C 210.725 368.599 210.562 368.574 210.398 368.548 C 208.829 368.217 207.769 366.335 208.034 364.375 L 209.278 355.342 C 209.543 353.382 211.051 352.033 212.621 352.389 C 214.19 352.72 215.25 354.603 214.985 356.562 L 213.742 365.597 C 213.498 367.353 212.274 368.599 210.889 368.599 Z"
    />
    <path
      d="M 208.808 380.968 C 208.543 380.968 208.279 380.921 208.014 380.851 C 206.464 380.357 205.567 378.5 206.016 376.713 L 206.791 373.539 C 207.219 371.752 208.829 370.717 210.378 371.235 C 211.928 371.728 212.824 373.585 212.376 375.373 L 211.602 378.546 C 211.234 380.004 210.073 380.968 208.808 380.968 Z"
    />
    <path
      d="M 200.308 380.584 C 200.124 380.584 199.92 380.559 199.737 380.508 C 198.168 380.101 197.149 378.193 197.474 376.233 L 200.043 360.354 C 200.37 358.394 201.898 357.123 203.468 357.53 C 205.037 357.937 206.057 359.845 205.731 361.805 L 203.162 377.684 C 202.856 379.389 201.654 380.584 200.308 380.584 Z"
    />
    <path
      d="M 193.54 369.794 C 193.254 369.794 192.989 369.742 192.704 369.641 C 191.175 369.055 190.299 367.045 190.767 365.136 L 191.664 361.447 C 192.133 359.538 193.743 358.444 195.272 359.029 C 196.802 359.614 197.679 361.625 197.209 363.534 L 196.313 367.223 C 195.945 368.776 194.783 369.794 193.54 369.794 Z"
    />
    <path
      d="M 190.625 383.917 C 190.319 383.917 190.013 383.866 189.728 383.738 C 188.199 383.103 187.384 381.067 187.873 379.158 L 189.095 374.501 C 189.606 372.593 191.236 371.575 192.765 372.185 C 194.294 372.822 195.109 374.858 194.62 376.766 L 193.397 381.423 C 192.989 382.95 191.848 383.917 190.625 383.917 Z"
    />
    <path
      d="M 180.697 384.834 C 180.371 384.834 180.024 384.757 179.697 384.605 C 178.189 383.918 177.435 381.831 177.986 379.948 L 182.082 366.105 C 182.633 364.222 184.305 363.28 185.814 363.967 C 187.322 364.654 188.076 366.741 187.526 368.624 L 183.428 382.468 C 183 383.918 181.879 384.834 180.697 384.834 Z"
    />
    <path
      d="M 261.16 359.082 C 259.672 359.082 258.407 357.657 258.265 355.774 L 257.836 349.794 C 257.694 347.809 258.877 346.053 260.467 345.849 C 262.057 345.671 263.464 347.147 263.626 349.132 L 264.054 355.112 C 264.197 357.096 263.015 358.852 261.425 359.056 C 261.343 359.082 261.262 359.082 261.16 359.082 Z"
    />
    <path
      d="M 262.546 377.226 C 261.038 377.226 259.773 375.776 259.652 373.892 L 259.223 367.123 C 259.101 365.138 260.283 363.382 261.893 363.23 C 263.484 363.078 264.89 364.553 265.013 366.564 L 265.441 373.333 C 265.563 375.318 264.381 377.074 262.77 377.226 C 262.709 377.226 262.628 377.226 262.546 377.226 Z"
    />
    <path
      d="M 271.393 378.371 C 269.906 378.371 268.641 376.946 268.499 375.063 L 266.95 353.382 C 266.806 351.396 267.989 349.641 269.579 349.463 C 271.169 349.284 272.576 350.76 272.718 352.745 L 274.268 374.427 C 274.411 376.412 273.228 378.168 271.638 378.345 C 271.557 378.371 271.475 378.371 271.393 378.371 Z"
    />
    <path
      d="M 277.978 360.456 C 276.592 360.456 275.368 359.235 275.124 357.479 L 274.859 355.671 C 274.573 353.712 275.614 351.829 277.204 351.473 C 278.773 351.116 280.281 352.414 280.567 354.4 L 280.832 356.206 C 281.117 358.166 280.078 360.049 278.488 360.405 C 278.325 360.43 278.141 360.456 277.978 360.456 Z"
    />
    <path
      d="M 280.852 380.432 C 279.507 380.432 278.284 379.237 278.019 377.532 L 276.49 368.04 C 276.164 366.08 277.183 364.172 278.753 363.765 C 280.322 363.357 281.851 364.629 282.177 366.589 L 283.707 376.081 C 284.032 378.04 283.013 379.949 281.444 380.356 C 281.24 380.407 281.056 380.432 280.852 380.432 Z"
    />
    <path
      d="M 287.356 367.403 C 285.928 367.403 284.706 366.105 284.482 364.299 L 283.788 358.318 C 283.564 356.333 284.665 354.501 286.234 354.221 C 287.824 353.941 289.293 355.315 289.517 357.275 L 290.209 363.255 C 290.434 365.24 289.333 367.072 287.764 367.353 C 287.641 367.378 287.498 367.403 287.356 367.403 Z"
    />
    <path
      d="M 289.517 381.781 C 288.048 381.781 286.785 380.407 286.643 378.549 L 286.398 375.649 C 286.234 373.664 287.376 371.882 288.987 371.653 C 290.577 371.449 292.004 372.875 292.187 374.885 L 292.432 377.786 C 292.595 379.771 291.453 381.552 289.843 381.781 C 289.72 381.756 289.619 381.781 289.517 381.781 Z"
    />
    <path
      d="M 298.16 382.824 C 296.733 382.824 295.49 381.525 295.286 379.693 L 293.37 362.719 C 293.146 360.735 294.246 358.903 295.837 358.623 C 297.427 358.343 298.894 359.717 299.118 361.701 L 301.034 378.675 C 301.258 380.661 300.159 382.493 298.567 382.773 C 298.425 382.798 298.302 382.824 298.16 382.824 Z"
    />
    <path
      d="M 305.132 371.372 C 303.746 371.372 302.523 370.151 302.278 368.395 L 301.829 365.214 C 301.544 363.254 302.604 361.371 304.174 361.015 C 305.744 360.659 307.252 361.982 307.537 363.941 L 307.987 367.122 C 308.271 369.082 307.211 370.965 305.642 371.321 C 305.479 371.346 305.315 371.372 305.132 371.372 Z"
    />
    <path
      d="M 306.742 384.401 C 305.255 384.401 303.99 383.001 303.848 381.119 L 303.603 377.862 C 303.46 375.876 304.623 374.095 306.233 373.916 C 307.823 373.739 309.25 375.189 309.392 377.2 L 309.637 380.457 C 309.78 382.442 308.618 384.223 307.007 384.401 C 306.926 384.401 306.845 384.401 306.742 384.401 Z"
    />
    <path
      d="M 236.268 362.644 C 236.208 362.644 236.167 362.644 236.105 362.644 C 234.515 362.543 233.293 360.812 233.374 358.827 L 233.842 348.7 C 233.924 346.714 235.29 345.162 236.9 345.289 C 238.49 345.391 239.714 347.122 239.632 349.107 L 239.164 359.235 C 239.082 361.143 237.798 362.644 236.268 362.644 Z"
    />
    <path
      d="M 235.066 377.105 C 234.903 377.105 234.74 377.078 234.577 377.051 C 232.987 376.696 231.927 374.681 232.192 372.583 L 232.477 370.269 C 232.742 368.144 234.25 366.728 235.82 367.082 C 237.41 367.437 238.47 369.451 238.205 371.548 L 237.919 373.864 C 237.695 375.77 236.452 377.105 235.066 377.105 Z"
    />
    <path
      d="M 253.066 354.145 C 251.476 354.145 250.172 352.541 250.172 350.532 L 250.172 348.801 C 250.172 346.791 251.456 345.162 253.066 345.162 C 253.066 345.162 253.066 345.162 253.087 345.162 C 254.677 345.162 255.981 346.765 255.981 348.776 L 255.981 350.506 C 255.981 352.491 254.677 354.12 253.066 354.145 C 253.087 354.145 253.066 354.145 253.066 354.145 Z"
    />
    <path
      d="M 253.148 376.437 C 251.558 376.437 250.254 374.72 250.254 372.569 L 250.213 362.492 C 250.213 360.34 251.497 358.598 253.107 358.598 C 253.107 358.598 253.107 358.598 253.128 358.598 C 254.718 358.598 256.022 360.313 256.022 362.465 L 256.063 372.542 C 256.063 374.693 254.759 376.437 253.148 376.437 C 253.169 376.437 253.148 376.437 253.148 376.437 Z"
    />
    <path
      d="M 315.264 385.133 C 313.776 385.133 312.492 383.644 312.369 381.65 L 311.656 370.272 C 311.533 368.199 312.716 366.365 314.306 366.205 C 315.916 366.046 317.303 367.588 317.425 369.662 L 318.139 381.038 C 318.26 383.113 317.079 384.946 315.489 385.105 C 315.427 385.105 315.345 385.133 315.264 385.133 Z"
    />
  </g>
  <g>
    <path
      d="M 248.194 445.827 C 246.584 445.827 245.3 444.523 245.3 442.933 L 245.3 427.847 C 245.3 426.237 246.604 424.953 248.194 424.953 C 249.784 424.953 251.09 426.257 251.09 427.847 L 251.09 442.933 C 251.109 444.523 249.805 445.827 248.194 445.827 Z"
    />
    <path
      d="M 256.614 435.431 C 255.003 435.431 253.719 434.126 253.719 432.535 L 253.719 427.888 C 253.719 426.278 255.024 424.993 256.614 424.993 C 258.224 424.993 259.508 426.298 259.508 427.888 L 259.508 432.535 C 259.529 434.146 258.224 435.431 256.614 435.431 Z"
    />
    <path
      d="M 256.614 444.42 C 255.003 444.42 253.719 443.116 253.719 441.526 L 253.719 440.669 C 253.719 439.059 255.024 437.775 256.614 437.775 C 258.224 437.775 259.508 439.079 259.508 440.669 L 259.508 441.526 C 259.529 443.116 258.224 444.42 256.614 444.42 Z"
    />
    <path
      d="M 265.033 436.939 C 263.423 436.939 262.139 435.634 262.139 434.045 L 262.139 426.216 C 262.139 424.606 263.443 423.322 265.033 423.322 C 266.644 423.322 267.928 424.626 267.928 426.216 L 267.928 434.045 C 267.928 435.634 266.644 436.939 265.033 436.939 Z"
    />
    <path
      d="M 239.205 432.535 C 237.594 432.535 236.309 431.231 236.309 429.641 L 236.309 427.909 C 236.309 426.298 237.614 425.013 239.205 425.013 C 240.795 425.013 242.099 426.318 242.099 427.909 L 242.099 429.641 C 242.12 431.231 240.815 432.535 239.205 432.535 Z"
    />
    <path
      d="M 239.205 444.42 C 237.594 444.42 236.309 443.116 236.309 441.526 L 236.309 437.958 C 236.309 436.348 237.614 435.064 239.205 435.064 C 240.795 435.064 242.099 436.368 242.099 437.958 L 242.099 441.526 C 242.12 443.116 240.815 444.42 239.205 444.42 Z"
    />
    <path
      d="M 230.5 437.224 C 228.889 437.224 227.605 435.92 227.605 434.33 L 227.605 427.358 C 227.605 425.748 228.91 424.463 230.5 424.463 C 232.11 424.463 233.394 425.768 233.394 427.358 L 233.394 434.33 C 233.415 435.94 232.11 437.224 230.5 437.224 Z"
    />
  </g>
  <g>
    <path
      d="M 247.563 511.286 C 247.542 511.286 247.522 511.286 247.501 511.286 C 245.891 511.246 244.626 509.92 244.667 508.31 L 244.973 495.528 C 245.014 493.918 246.339 492.653 247.95 492.694 C 249.56 492.735 250.824 494.06 250.784 495.671 L 250.478 508.453 C 250.416 510.043 249.132 511.286 247.563 511.286 Z"
    />
    <path
      d="M 238.311 493.571 C 238.29 493.571 238.27 493.571 238.27 493.571 C 236.659 493.551 235.396 492.226 235.416 490.615 L 235.558 481.4 C 235.579 479.79 236.904 478.526 238.514 478.547 C 240.125 478.567 241.388 479.892 241.368 481.503 L 241.226 490.717 C 241.185 492.307 239.901 493.571 238.311 493.571 Z"
    />
    <path
      d="M 237.131 509.359 C 237.111 509.359 237.09 509.359 237.07 509.359 C 235.459 509.318 234.196 507.993 234.237 506.383 L 234.399 499.982 C 234.44 498.372 235.765 497.129 237.376 497.148 C 238.986 497.189 240.25 498.514 240.21 500.124 L 240.046 506.526 C 239.985 508.116 238.701 509.359 237.131 509.359 Z"
    />
    <path
      d="M 259.223 507.985 C 259.202 507.985 259.182 507.985 259.161 507.985 C 257.551 507.945 256.287 506.62 256.327 505.009 L 256.47 498.731 C 256.511 497.16 257.795 495.897 259.365 495.897 C 259.385 495.897 259.406 495.897 259.426 495.897 C 261.037 495.938 262.3 497.263 262.259 498.873 L 262.117 505.152 C 262.076 506.742 260.792 507.985 259.223 507.985 Z"
    />
    <path
      d="M 259.356 493.808 C 257.745 493.808 256.461 492.502 256.461 490.912 L 256.461 481.637 C 256.461 480.027 257.766 478.743 259.356 478.743 C 260.946 478.743 262.251 480.047 262.251 481.637 L 262.251 490.912 C 262.251 492.502 260.946 493.808 259.356 493.808 Z"
    />
    <path
      d="M 270.251 488.964 C 270.251 488.964 270.251 488.964 270.251 488.964 C 268.641 488.964 267.336 487.659 267.357 486.049 L 267.377 481.85 C 267.377 480.259 268.682 478.954 270.272 478.954 C 270.272 478.954 270.292 478.954 270.292 478.954 C 271.903 478.954 273.188 480.259 273.188 481.869 L 273.167 486.069 C 273.147 487.68 271.843 488.964 270.251 488.964 Z"
    />
    <path
      d="M 270.762 507.291 C 270.742 507.291 270.721 507.291 270.721 507.291 C 269.111 507.27 267.846 505.945 267.866 504.335 L 268.03 494.733 C 268.051 493.143 269.355 491.879 270.925 491.879 C 270.945 491.879 270.966 491.879 270.966 491.879 C 272.576 491.899 273.84 493.224 273.819 494.835 L 273.657 504.437 C 273.636 506.027 272.352 507.291 270.762 507.291 Z"
    />
    <path
      d="M 281.464 491.633 C 280.037 491.633 278.773 490.573 278.59 489.105 L 277.489 480.767 C 277.285 479.177 278.406 477.729 279.996 477.505 C 281.586 477.302 283.034 478.423 283.258 480.013 L 284.359 488.351 C 284.562 489.941 283.442 491.388 281.851 491.613 C 281.729 491.633 281.606 491.633 281.464 491.633 Z"
    />
    <path
      d="M 282.666 503.56 C 281.24 503.56 279.976 502.5 279.792 501.032 L 279.406 498.117 C 279.201 496.527 280.322 495.079 281.912 494.855 C 283.502 494.651 284.95 495.773 285.174 497.363 L 285.562 500.278 C 285.766 501.868 284.644 503.316 283.054 503.54 C 282.931 503.56 282.81 503.56 282.666 503.56 Z"
    />
    <path
      d="M 290.373 482.95 C 288.946 482.95 287.703 481.91 287.498 480.443 L 287.05 477.242 C 286.826 475.652 287.927 474.184 289.517 473.96 C 291.107 473.736 292.575 474.837 292.799 476.427 L 293.247 479.627 C 293.471 481.217 292.37 482.685 290.78 482.91 C 290.638 482.95 290.495 482.95 290.373 482.95 Z"
    />
    <path
      d="M 291.739 494.366 C 290.312 494.366 289.068 493.306 288.864 491.858 L 288.457 488.923 C 288.233 487.333 289.354 485.866 290.944 485.661 C 292.534 485.437 294.001 486.558 294.206 488.148 L 294.613 491.084 C 294.837 492.674 293.716 494.142 292.126 494.346 C 292.004 494.366 291.881 494.366 291.739 494.366 Z"
    />
    <path
      d="M 304.536 495.112 C 303.191 495.112 301.988 494.175 301.703 492.809 L 301.132 490.098 C 300.806 488.528 301.825 486.998 303.374 486.672 C 304.944 486.347 306.473 487.366 306.799 488.915 L 307.37 491.626 C 307.696 493.196 306.677 494.725 305.127 495.051 C 304.924 495.092 304.74 495.112 304.536 495.112 Z"
    />
    <path
      d="M 302.123 485.443 C 300.777 485.443 299.575 484.568 299.29 483.293 L 297.271 474.406 C 296.944 472.941 297.944 471.514 299.514 471.19 C 301.083 470.885 302.612 471.817 302.959 473.283 L 304.977 482.17 C 305.303 483.635 304.304 485.063 302.735 485.386 C 302.531 485.424 302.327 485.443 302.123 485.443 Z"
    />
    <path
      d="M 313.063 485.091 C 311.892 485.091 310.818 484.343 310.454 483.172 L 307.077 472.409 C 306.616 470.969 307.421 469.435 308.86 468.993 C 310.3 468.533 311.834 469.339 312.276 470.778 L 315.652 481.542 C 316.113 482.98 315.308 484.516 313.868 484.957 C 313.619 485.052 313.331 485.091 313.063 485.091 Z"
    />
    <path
      d="M 322.132 478.069 C 321.072 478.069 320.053 477.478 319.542 476.479 L 316.097 469.65 C 315.384 468.223 315.955 466.47 317.382 465.757 C 318.808 465.043 320.562 465.613 321.275 467.041 L 324.72 473.87 C 325.434 475.296 324.864 477.05 323.436 477.763 C 323.009 477.968 322.559 478.069 322.132 478.069 Z"
    />
    <path
      d="M 328.531 467.848 C 327.43 467.848 326.37 467.217 325.881 466.157 L 324.434 462.955 C 323.761 461.488 324.414 459.775 325.881 459.124 C 327.35 458.45 329.061 459.103 329.714 460.57 L 331.162 463.771 C 331.834 465.239 331.181 466.952 329.714 467.604 C 329.347 467.767 328.94 467.848 328.531 467.848 Z"
    />
    <path
      d="M 224.75 507.617 C 224.567 507.617 224.384 507.597 224.2 507.556 C 222.63 507.25 221.591 505.721 221.917 504.152 L 224.017 493.347 C 224.323 491.777 225.851 490.758 227.421 491.063 C 228.99 491.369 230.031 492.899 229.705 494.468 L 227.605 505.273 C 227.32 506.659 226.096 507.617 224.75 507.617 Z"
    />
    <path
      d="M 228.339 488.459 C 228.175 488.459 228.012 488.438 227.85 488.418 C 226.26 488.153 225.2 486.665 225.465 485.075 L 226.137 481.058 C 226.402 479.468 227.91 478.408 229.481 478.673 C 231.071 478.938 232.131 480.427 231.866 482.017 L 231.192 486.033 C 230.968 487.46 229.746 488.459 228.339 488.459 Z"
    />
    <path
      d="M 217.676 491.141 C 217.473 491.141 217.269 491.12 217.045 491.08 C 215.476 490.733 214.496 489.184 214.843 487.614 L 217.045 477.625 C 217.391 476.055 218.941 475.077 220.51 475.424 C 222.08 475.77 223.058 477.32 222.712 478.889 L 220.51 488.878 C 220.225 490.224 219.022 491.141 217.676 491.141 Z"
    />
    <path
      d="M 214.985 502.032 C 214.802 502.032 214.599 502.011 214.395 501.97 C 212.824 501.645 211.805 500.115 212.132 498.546 L 212.621 496.181 C 212.947 494.612 214.476 493.593 216.045 493.918 C 217.616 494.244 218.635 495.773 218.309 497.344 L 217.82 499.708 C 217.534 501.094 216.331 502.032 214.985 502.032 Z"
    />
    <path
      d="M 208.259 484.205 C 207.913 484.205 207.546 484.144 207.199 484.002 C 205.712 483.41 204.978 481.718 205.568 480.23 L 206.363 478.232 C 206.955 476.744 208.647 476.01 210.135 476.601 C 211.623 477.192 212.357 478.885 211.766 480.372 L 210.971 482.371 C 210.502 483.512 209.422 484.205 208.259 484.205 Z"
    />
    <path
      d="M 204.671 496.915 C 204.426 496.915 204.201 496.894 203.957 496.833 C 202.408 496.445 201.47 494.855 201.857 493.306 L 203.121 488.332 C 203.509 486.782 205.099 485.845 206.648 486.232 C 208.198 486.62 209.135 488.21 208.748 489.759 L 207.484 494.733 C 207.137 496.038 205.955 496.915 204.671 496.915 Z"
    />
    <path
      d="M 194.293 490.26 C 193.824 490.26 193.335 490.137 192.886 489.893 C 191.479 489.118 190.97 487.345 191.744 485.959 L 193.742 482.35 C 194.517 480.943 196.291 480.434 197.676 481.208 C 199.083 481.984 199.593 483.757 198.818 485.143 L 196.821 488.751 C 196.312 489.73 195.312 490.26 194.293 490.26 Z"
    />
    <path
      d="M 199.597 479.538 C 199.067 479.538 198.517 479.378 198.028 479.016 C 196.682 478.039 196.294 476.041 197.151 474.542 L 197.987 473.089 C 198.864 471.591 200.657 471.16 202.003 472.113 C 203.348 473.089 203.736 475.087 202.88 476.586 L 202.044 478.039 C 201.473 479.016 200.536 479.538 199.597 479.538 Z"
    />
    <path
      d="M 185.058 484.47 C 184.488 484.47 183.917 484.307 183.407 483.961 C 182.082 483.043 181.756 481.249 182.673 479.924 L 188.177 471.973 C 189.095 470.648 190.889 470.322 192.214 471.24 C 193.539 472.157 193.865 473.951 192.947 475.276 L 187.444 483.227 C 186.893 484.042 185.976 484.47 185.058 484.47 Z"
    />
    <path
      d="M 247.909 490.024 C 246.298 490.024 245.014 488.584 245.014 486.828 L 245.014 484.577 C 245.014 482.798 246.319 481.38 247.909 481.38 C 249.499 481.38 250.804 482.821 250.804 484.577 L 250.804 486.828 C 250.824 488.605 249.519 490.024 247.909 490.024 Z"
    />
    <path
      d="M 172.606 467.378 C 171.791 467.378 170.975 467.032 170.404 466.358 C 169.365 465.136 169.508 463.301 170.71 462.262 L 172.75 460.528 C 173.972 459.489 175.807 459.631 176.846 460.834 C 177.886 462.057 177.744 463.891 176.54 464.932 L 174.502 466.664 C 173.952 467.153 173.28 467.378 172.606 467.378 Z"
    />
    <path
      d="M 165.633 461.883 C 165.103 461.883 164.553 461.741 164.064 461.414 C 162.718 460.537 162.331 458.744 163.187 457.398 L 164.023 456.094 C 164.9 454.748 166.693 454.361 168.039 455.217 C 169.384 456.094 169.772 457.887 168.916 459.233 L 168.08 460.537 C 167.509 461.414 166.572 461.883 165.633 461.883 Z"
    />
    <path
      d="M 336.688 461.854 C 335.587 461.854 334.527 461.222 334.037 460.162 L 332.591 456.962 C 331.917 455.494 332.57 453.782 334.037 453.129 C 335.505 452.457 337.218 453.108 337.87 454.577 L 339.318 457.777 C 339.99 459.245 339.338 460.957 337.87 461.61 C 337.504 461.773 337.095 461.854 336.688 461.854 Z"
    />
    <path
      d="M 182.498 471.514 C 182.151 471.514 181.783 471.452 181.438 471.31 C 179.949 470.719 179.215 469.026 179.807 467.539 L 180.602 465.54 C 181.192 464.053 182.884 463.318 184.373 463.91 C 185.861 464.501 186.594 466.193 186.004 467.681 L 185.209 469.679 C 184.739 470.82 183.659 471.514 182.498 471.514 Z"
    />
  </g>
  <path
    d="M 246.604 336.642 C 246.38 336.642 246.175 336.62 245.951 336.58 C 236.961 334.948 231.131 331.748 227.604 326.489 C 220.49 315.908 224.058 298.764 229.99 270.387 C 231.233 264.413 232.639 257.667 234.046 250.49 C 234.433 248.533 236.329 247.249 238.306 247.636 C 240.263 248.023 241.547 249.919 241.161 251.896 C 239.733 259.114 238.328 265.902 237.085 271.896 C 231.743 297.521 228.195 314.441 233.618 322.473 C 235.982 326.001 240.326 328.222 247.256 329.465 C 249.233 329.832 250.538 331.708 250.171 333.686 C 249.866 335.418 248.337 336.642 246.604 336.642 Z"
  />
  <path
    d="M 244.606 412.028 C 241.691 412.028 239.164 411.968 237.124 411.906 C 226.544 411.539 216.27 410.418 208.176 408.746 C 196.026 406.26 193.111 403.506 191.97 401.651 C 190.93 399.94 191.46 397.717 193.172 396.657 C 194.844 395.617 197.045 396.127 198.106 397.758 C 198.33 397.982 200.613 399.899 210.826 401.875 C 218.654 403.385 228.501 404.383 238.53 404.69 C 263.585 405.424 286.029 401.917 300.137 395.047 C 301.93 394.171 304.112 394.924 304.989 396.719 C 305.865 398.512 305.111 400.694 303.317 401.57 C 284.991 410.498 259.732 412.028 244.606 412.028 Z M 198.166 397.861 C 198.166 397.861 198.166 397.861 198.166 397.861 C 198.166 397.861 198.166 397.861 198.166 397.861 Z"
  />
  <path
    d="M 438.822 285.942 C 436.029 303.941 430.342 321.881 424.675 330.546 C 417.132 342.104 407.265 346.101 400.334 347.405 C 396.522 348.139 393.137 348.139 390.712 347.975 C 389.896 353.235 387.98 363.734 383.862 377.393 C 380.886 387.3 376.381 399.94 369.816 413.7 C 367.471 418.634 364.842 423.709 361.927 428.846 C 358.278 435.309 354.139 441.893 349.513 448.437 C 332.408 472.595 317.791 487.721 302.154 497.506 C 286.398 507.353 268.988 512 247.643 512 C 246.441 512 245.218 511.981 243.994 511.959 C 232.497 511.674 220.857 508.74 209.4 503.194 C 199.37 498.322 189.441 491.472 179.921 482.807 C 167.65 471.616 156.069 457.387 147.019 442.485 C 144.573 438.469 142.33 434.412 140.291 430.355 C 140.087 429.927 139.862 429.519 139.66 429.091 C 124.002 397.432 118.539 369.136 114.788 342.818 C 113.974 343.062 113.076 343.287 112.097 343.45 C 107.877 344.122 101.314 343.756 93.954 338.19 C 87.553 333.339 80.337 314.482 76.341 299.029 C 73.017 286.125 68.329 262.213 74.405 247.004 C 77.666 238.829 83.598 234.406 91.65 233.999 C 91.875 233.978 92.099 233.978 92.323 233.978 C 93.486 233.957 94.708 234.018 95.972 234.141 C 97.461 234.304 98.644 235.364 99.051 236.709 C 99.194 237.157 99.234 237.648 99.172 238.137 C 99.133 238.422 99.071 238.686 98.989 238.932 C 98.541 240.216 97.379 241.153 96.013 241.317 C 95.748 241.358 95.462 241.358 95.158 241.317 C 88.165 240.522 83.721 243.173 81.131 249.654 C 77.258 259.358 78.073 276.666 83.353 297.173 C 88.082 315.501 94.81 329.71 98.317 332.381 C 107.939 339.678 115.012 334.908 115.502 334.561 C 116.521 333.746 117.867 333.583 119.07 334.052 C 120.272 334.541 121.108 335.662 121.292 336.946 C 125.98 370.93 131.587 396.514 146.305 426.156 C 146.448 426.462 146.611 426.767 146.774 427.093 C 146.794 427.155 146.835 427.216 146.855 427.257 C 152.175 437.836 160.596 451.149 171.481 463.747 C 172.685 465.154 173.949 466.561 175.212 467.927 C 176.068 468.864 176.945 469.782 177.822 470.679 C 179.167 472.064 180.533 473.43 181.939 474.776 C 182.775 475.591 183.632 476.387 184.488 477.182 C 185.915 478.507 187.383 479.791 188.871 481.055 C 189.89 481.91 190.93 482.768 191.97 483.582 C 193.499 484.806 195.049 485.989 196.638 487.13 C 198.534 488.495 200.469 489.821 202.448 491.064 C 204.16 492.145 205.892 493.184 207.647 494.162 C 209.359 495.12 211.091 496.017 212.846 496.853 C 214.618 497.689 216.413 498.485 218.227 499.199 C 219.674 499.768 221.121 500.299 222.589 500.809 C 224.424 501.421 226.299 501.971 228.175 502.46 C 230.316 503.01 232.476 503.459 234.678 503.806 C 236.594 504.112 238.511 504.355 240.467 504.498 C 241.691 504.601 242.934 504.662 244.199 504.682 C 244.402 504.682 244.606 504.703 244.81 504.703 C 246.787 504.743 248.724 504.743 250.62 504.703 C 252.617 504.662 254.596 504.579 256.532 504.437 C 258.508 504.295 260.445 504.112 262.342 503.887 C 264.319 503.643 266.256 503.358 268.152 502.99 C 270.13 502.623 272.066 502.195 273.982 501.726 C 275.939 501.238 277.855 500.667 279.731 500.055 C 281.606 499.423 283.482 498.749 285.316 497.995 C 290.332 495.937 295.184 493.367 299.933 490.228 C 301.238 489.373 302.542 488.476 303.848 487.518 C 305.906 486.029 307.946 484.439 309.963 482.727 C 311.553 481.381 313.143 479.995 314.714 478.507 C 316.14 477.182 317.546 475.795 318.974 474.368 C 320.38 472.941 321.807 471.453 323.235 469.904 C 323.988 469.088 324.723 468.274 325.476 467.416 C 326.741 465.99 328.025 464.501 329.31 462.972 C 333.997 457.387 338.748 451.149 343.661 444.237 C 351.428 433.27 357.707 422.2 362.762 411.763 C 362.906 411.478 363.048 411.192 363.171 410.908 C 363.171 410.908 363.171 410.908 363.171 410.908 C 369.613 397.473 374.015 385.138 376.93 375.477 C 382.618 356.639 384.046 343.654 384.066 343.532 C 384.168 342.492 384.719 341.554 385.575 340.964 C 386.43 340.371 387.49 340.147 388.509 340.393 C 388.55 340.393 393.26 341.453 399.335 340.23 C 407.285 338.639 413.808 334.052 418.68 326.571 C 423.757 318.804 429.119 301.638 431.729 284.821 C 434.705 265.596 433.562 250.103 428.671 243.397 C 426.978 241.072 423.92 238.238 416.806 240.175 C 416.806 240.175 416.806 240.175 416.785 240.175 C 416.765 240.175 416.725 240.195 416.704 240.195 C 416.683 240.195 416.642 240.216 416.623 240.216 C 416.601 240.216 416.561 240.236 416.54 240.236 C 416.52 240.236 416.5 240.257 416.48 240.257 C 416.439 240.257 416.399 240.277 416.337 240.277 C 416.337 240.277 416.316 240.277 416.316 240.277 C 416.275 240.277 416.235 240.298 416.213 240.298 C 416.194 240.298 416.174 240.298 416.174 240.298 C 416.133 240.298 416.113 240.298 416.072 240.298 C 415.989 240.298 415.909 240.298 415.827 240.298 L 415.806 240.298 C 415.704 240.298 415.623 240.298 415.521 240.277 C 415.48 240.277 415.42 240.257 415.379 240.257 C 415.338 240.257 415.297 240.236 415.256 240.236 C 415.194 240.236 415.153 240.216 415.093 240.216 C 415.053 240.216 415.011 240.195 414.951 240.195 C 414.849 240.175 414.768 240.155 414.666 240.115 C 414.625 240.094 414.563 240.094 414.522 240.074 C 414.441 240.031 414.339 239.992 414.257 239.951 C 414.217 239.931 414.175 239.91 414.134 239.889 C 414.054 239.848 413.992 239.807 413.91 239.768 C 413.891 239.768 413.891 239.747 413.871 239.747 C 413.789 239.706 413.708 239.645 413.646 239.583 C 413.606 239.564 413.565 239.522 413.544 239.503 C 413.524 239.503 413.503 239.482 413.503 239.462 C 413.462 239.421 413.422 239.4 413.381 239.359 C 413.341 239.32 413.279 239.279 413.238 239.238 C 413.197 239.196 413.177 239.176 413.136 239.135 C 413.055 239.055 412.994 238.972 412.932 238.891 C 412.891 238.85 412.872 238.81 412.831 238.747 C 412.789 238.708 412.77 238.667 412.748 238.605 C 412.688 238.503 412.626 238.422 412.586 238.32 C 412.565 238.279 412.546 238.219 412.524 238.177 C 412.505 238.116 412.463 238.055 412.443 237.993 C 412.423 237.952 412.423 237.913 412.402 237.872 C 412.382 237.85 412.382 237.81 412.382 237.79 C 412.362 237.75 412.362 237.709 412.341 237.667 C 412.341 237.667 412.341 237.667 412.341 237.648 C 412.3 237.504 412.26 237.341 412.238 237.2 C 412.238 237.138 412.219 237.097 412.219 237.036 C 412.219 236.974 412.199 236.914 412.199 236.853 C 412.199 236.75 412.199 236.629 412.199 236.526 C 412.199 236.526 412.199 236.526 412.199 236.526 C 412.199 236.485 412.199 236.424 412.219 236.383 L 412.219 236.261 L 412.219 236.241 C 412.402 234.835 413.401 233.59 414.849 233.183 C 415.277 233.061 415.704 232.958 416.113 232.856 C 417.418 232.551 418.64 232.388 419.803 232.306 C 419.823 232.306 419.823 232.306 419.823 232.306 C 427.366 231.777 431.931 235.528 434.562 239.095 C 442.797 250.551 440.759 273.363 438.822 285.942 Z"
  />
</svg>
