<svg xmlns="http://www.w3.org/2000/svg" viewBox="0 0 370 512">
  <style>
    .st0 {
      fill: #ffffff;
    }
    .st1 {
      fill: #6d6d6d;
    }
  </style>
  <path
    class="st0"
    d="M 44.136 342.834 C 44.136 342.834 44.136 342.834 44.136 342.834 C 45.359 351.419 46.767 360.214 48.651 369.268 C 46.767 360.214 45.359 351.419 44.136 342.834 Z M 44.188 342.818 C 47.939 369.136 53.402 397.432 69.06 429.091 C 69.262 429.519 69.487 429.927 69.691 430.355 C 71.73 434.412 73.973 438.469 76.419 442.485 C 85.469 457.387 97.05 471.616 109.321 482.807 C 118.841 491.472 128.77 498.322 138.8 503.194 C 150.257 508.74 161.897 511.674 173.394 511.959 C 174.618 511.981 175.841 512 177.043 512 C 198.388 512 215.798 507.353 231.554 497.506 C 247.191 487.721 261.808 472.595 278.913 448.437 C 283.539 441.893 287.678 435.309 291.327 428.846 C 294.242 423.709 296.871 418.634 299.216 413.7 C 305.781 399.94 310.286 387.3 313.262 377.393 C 317.38 363.734 319.296 353.235 320.112 347.975 C 322.537 348.139 325.922 348.139 329.734 347.405 C 336.665 346.101 346.532 342.104 354.075 330.546 C 359.742 321.881 365.429 303.941 368.222 285.942 C 370.159 273.363 372.197 250.551 363.86 239.115 C 361.23 235.547 356.664 231.796 349.121 232.327 L 352.403 193.124 C 352.403 193.104 352.403 193.063 352.403 193.043 C 352.403 193.002 352.403 192.983 352.403 192.961 C 352.465 191.656 353.361 173.676 351.363 151.414 C 348.611 120.734 341.863 97.881 331.324 83.489 C 312.284 57.476 289.778 37.172 264.417 23.106 C 240.341 9.754 213.779 2.047 185.463 0.213 C 161.143 -1.377 132.724 6.003 105.49 20.986 C 78.865 35.623 56.298 55.764 41.926 77.72 C 35.178 88.035 29.796 100.959 25.943 116.168 C 22.886 128.215 20.745 141.731 19.623 156.328 C 17.728 180.771 19.257 199.689 19.359 200.994 L 19.359 201.013 L 20.99 233.957 C 12.936 234.365 7.004 238.788 3.743 246.964 C -2.332 262.172 2.357 286.084 5.679 298.988 C 9.676 314.441 16.892 333.298 23.293 338.15 C 30.653 343.715 37.217 344.082 41.437 343.41 C 42.415 343.246 43.312 343.022 44.128 342.778 C 44.13 342.797 44.133 342.815 44.136 342.834 C 44.153 342.829 44.171 342.824 44.188 342.818 Z M 48.651 369.268 C 52.539 387.953 58.46 407.739 68.999 429.051 C 58.46 407.739 52.539 387.953 48.651 369.268 Z"
  />
  <g class="templeLeft">
    <path
      class="st1"
      d="M 39.623 169.598 L 37.604 253.731 C 34.75 242.702 30.959 240.501 25.515 237.178 L 23.069 197.365 L 39.623 169.598 Z"
    />
    <path
      class="st1"
      d="M 37.604 257.36 C 35.973 257.36 34.506 256.259 34.098 254.648 C 31.651 245.189 28.88 243.497 23.844 240.419 L 23.619 240.276 C 22.6 239.665 21.968 238.585 21.887 237.402 L 19.441 197.589 C 19.4 196.854 19.563 196.141 19.95 195.509 L 36.503 167.723 C 37.339 166.317 39.031 165.644 40.621 166.092 C 42.211 166.541 43.292 168.008 43.251 169.659 L 41.233 253.792 C 41.192 255.607 39.826 257.095 38.012 257.298 C 37.89 257.36 37.747 257.36 37.604 257.36 Z M 29.022 235.078 C 30.897 236.26 32.671 237.463 34.323 239.156 L 35.668 183.319 L 26.76 198.261 L 29.022 235.078 Z"
    />
    <path
      d="M 28.268 238.891 C 27.84 240.154 26.719 241.132 25.332 241.317 C 25.23 241.336 25.129 241.336 25.026 241.336 C 24.965 241.336 24.904 241.336 24.843 241.336 C 22.927 241.336 21.316 239.828 21.214 237.891 L 21.031 233.977 L 19.4 201.034 L 19.4 201.013 L 19.4 200.931 C 19.38 200.442 19.441 199.974 19.604 199.545 C 20.072 198.22 21.296 197.242 22.784 197.139 C 22.804 197.139 22.824 197.139 22.845 197.139 C 22.988 197.139 23.11 197.139 23.253 197.139 C 23.783 197.18 24.293 197.324 24.741 197.568 C 25.821 198.139 26.596 199.259 26.657 200.586 L 26.698 201.584 L 28.451 236.709 L 28.492 237.525 C 28.471 238.014 28.41 238.482 28.268 238.891 Z"
    />
  </g>
  <g class="templeRight">
    <path
      class="st1"
      d="M 319.052 161.2 C 319.052 161.2 327.859 230.206 330.407 256.972 C 332.752 246.473 334.912 238.503 345.105 236.709 L 348.897 187.824 L 319.052 161.2 Z"
    />
    <path
      class="st1"
      d="M 330.407 260.601 C 330.326 260.601 330.264 260.601 330.182 260.601 C 328.409 260.499 326.961 259.093 326.799 257.319 C 324.291 230.919 315.546 162.361 315.464 161.669 C 315.281 160.159 316.035 158.713 317.381 157.998 C 318.726 157.285 320.357 157.489 321.478 158.509 L 351.343 185.133 C 352.179 185.887 352.627 186.988 352.546 188.13 L 348.755 237.014 C 348.632 238.666 347.389 240.011 345.758 240.296 C 338.316 241.601 336.441 246.617 333.954 257.768 C 333.567 259.418 332.099 260.601 330.407 260.601 Z M 323.863 170.353 C 325.84 186.09 329.796 217.913 332.343 240.705 C 334.444 237.626 337.379 235.139 341.701 233.793 L 345.167 189.332 L 323.863 170.353 Z"
    />
    <path
      d="M 352.424 192.981 C 352.424 193.002 352.424 193.022 352.424 193.062 C 352.424 193.083 352.424 193.124 352.424 193.144 L 349.142 232.347 L 348.755 236.974 L 348.755 237.014 C 348.755 237.055 348.755 237.096 348.734 237.137 C 348.734 237.178 348.734 237.198 348.714 237.239 C 348.714 237.28 348.714 237.32 348.693 237.361 C 348.673 237.422 348.673 237.484 348.652 237.565 C 348.652 237.606 348.632 237.647 348.632 237.667 C 348.55 237.932 348.449 238.197 348.326 238.441 C 348.306 238.482 348.285 238.523 348.244 238.564 C 348.244 238.564 348.244 238.564 348.244 238.564 C 348.224 238.605 348.204 238.645 348.184 238.666 C 348.163 238.706 348.143 238.727 348.122 238.747 C 348.102 238.788 348.061 238.85 348.02 238.891 C 348 238.931 347.959 238.971 347.939 239.012 C 347.857 239.115 347.755 239.216 347.674 239.298 C 347.654 239.318 347.613 239.339 347.592 239.38 C 347.552 239.421 347.511 239.461 347.47 239.481 C 347.409 239.542 347.348 239.583 347.266 239.645 C 347.225 239.665 347.205 239.686 347.164 239.706 C 347.001 239.828 346.818 239.91 346.634 239.991 C 346.553 240.031 346.471 240.072 346.369 240.093 C 346.308 240.113 346.268 240.134 346.206 240.154 C 346.186 240.154 346.165 240.175 346.145 240.175 C 346.145 240.175 346.145 240.175 346.124 240.175 C 346.104 240.175 346.064 240.195 346.043 240.195 C 346.023 240.195 345.982 240.216 345.962 240.216 C 345.941 240.216 345.9 240.236 345.88 240.236 C 345.859 240.236 345.839 240.256 345.818 240.256 C 345.798 240.256 345.778 240.256 345.758 240.276 C 345.738 240.276 345.717 240.296 345.676 240.296 C 345.676 240.296 345.656 240.296 345.656 240.296 C 345.615 240.296 345.574 240.317 345.553 240.317 C 345.533 240.317 345.513 240.317 345.513 240.317 C 345.473 240.317 345.452 240.317 345.411 240.317 C 345.329 240.317 345.248 240.317 345.167 240.317 L 345.146 240.317 C 345.044 240.317 344.963 240.317 344.861 240.296 C 344.82 240.296 344.758 240.276 344.717 240.276 C 344.678 240.276 344.637 240.256 344.596 240.256 C 344.534 240.256 344.493 240.236 344.433 240.236 C 344.392 240.236 344.351 240.216 344.29 240.216 C 344.187 240.195 344.107 240.175 344.004 240.134 C 343.963 240.113 343.903 240.113 343.862 240.093 C 343.78 240.052 343.678 240.011 343.597 239.971 C 343.556 239.951 343.515 239.93 343.474 239.91 C 343.392 239.869 343.332 239.828 343.25 239.787 C 343.23 239.787 343.23 239.766 343.209 239.766 C 343.127 239.726 343.047 239.665 342.985 239.604 C 342.944 239.583 342.903 239.542 342.883 239.522 C 342.862 239.522 342.842 239.501 342.842 239.481 C 342.802 239.44 342.761 239.421 342.72 239.38 C 342.679 239.339 342.618 239.298 342.577 239.257 C 342.537 239.216 342.517 239.196 342.476 239.156 C 342.394 239.074 342.332 238.992 342.272 238.91 C 342.231 238.87 342.211 238.829 342.17 238.768 C 342.129 238.727 342.108 238.686 342.088 238.626 C 342.026 238.523 341.966 238.441 341.925 238.34 C 341.905 238.299 341.884 238.238 341.864 238.197 C 341.843 238.136 341.802 238.075 341.782 238.014 C 341.761 237.973 341.761 237.932 341.742 237.891 C 341.722 237.871 341.722 237.83 341.722 237.81 C 341.701 237.769 341.701 237.728 341.681 237.687 C 341.681 237.687 341.681 237.687 341.681 237.667 C 341.64 237.525 341.599 237.361 341.578 237.219 C 341.578 237.157 341.558 237.117 341.558 237.055 C 341.558 236.995 341.537 236.933 341.537 236.872 C 341.537 236.77 341.537 236.648 341.537 236.546 C 341.537 236.546 341.537 236.546 341.537 236.546 C 341.537 236.505 341.537 236.444 341.558 236.403 L 341.558 236.281 L 341.558 236.26 L 345.085 194.143 L 345.228 192.532 C 345.309 191.595 345.738 190.78 346.348 190.188 C 347.001 189.576 347.898 189.19 348.836 189.21 C 348.877 189.21 348.917 189.21 348.958 189.21 C 349.02 189.21 349.06 189.21 349.121 189.21 C 350.63 189.332 351.832 190.371 352.281 191.717 C 352.383 192.125 352.444 192.553 352.424 192.981 Z"
    />
  </g>
  <g class="hair">
    <path
      d="M 39.623 169.598 L 22.988 200.769 C 22.988 200.769 16.342 123.485 44.964 79.758 C 73.586 36.03 135.681 0.661 185.239 3.882 C 239.425 7.408 289.798 32.952 328.409 85.691 C 352.872 119.083 348.795 192.859 348.795 192.859 L 319.052 161.22 C 319.052 161.22 308.227 103.773 301.601 90.277 C 294.956 76.762 283.173 71.053 254.613 70.626 C 226.052 70.197 162.203 69.829 135.008 65.406 C 107.813 60.982 74.198 59.984 60.273 83.651 C 36.667 123.669 39.623 169.598 39.623 169.598 Z"
    />
    <path
      d="M 351.384 151.455 C 348.612 120.775 341.864 97.921 331.345 83.53 C 312.305 57.537 289.798 37.212 264.438 23.147 C 240.362 9.793 213.8 2.088 185.484 0.252 C 161.163 -1.338 132.765 6.063 105.51 21.026 C 78.886 35.663 56.298 55.804 41.946 77.76 C 35.199 88.076 29.817 101 25.965 116.207 C 22.906 128.256 20.786 141.772 19.645 156.369 C 17.749 180.811 19.277 199.709 19.38 201.034 L 19.38 201.054 C 19.38 201.075 19.38 201.075 19.38 201.075 C 19.42 201.543 19.542 201.971 19.747 202.379 C 20.236 203.357 21.153 204.092 22.254 204.316 C 22.498 204.357 22.743 204.397 22.988 204.397 C 23.171 204.397 23.334 204.377 23.498 204.357 C 24.619 204.193 25.638 203.521 26.189 202.482 L 26.657 201.605 L 26.922 201.095 L 35.627 184.806 L 39.419 177.691 L 42.803 171.331 C 43.047 170.863 43.191 170.353 43.232 169.844 C 43.232 169.7 43.232 169.538 43.232 169.394 C 43.232 169.394 43.232 169.353 43.232 169.293 C 43.17 168.151 42.661 157.143 44.699 141.935 C 46.676 127.277 51.528 105.567 63.372 85.446 C 73.524 68.219 96.764 62.817 134.417 68.954 C 159.002 72.949 212.454 73.662 244.419 74.091 C 248.13 74.132 251.534 74.192 254.551 74.233 C 284.151 74.681 293.019 81.042 298.36 91.867 C 304.557 104.486 314.893 158.692 315.485 161.75 C 315.505 161.831 315.505 161.872 315.505 161.872 C 315.627 162.545 315.953 163.177 316.422 163.686 L 319.847 167.315 L 324.067 171.8 L 344.82 193.878 L 345.064 194.123 L 346.165 195.305 C 346.736 195.917 347.47 196.284 348.265 196.406 C 348.265 196.406 348.265 196.406 348.265 196.406 C 348.856 196.488 349.468 196.447 350.059 196.223 C 350.956 195.896 351.649 195.244 352.056 194.449 C 352.281 194.021 352.403 193.532 352.444 193.043 C 352.444 193.022 352.444 193.002 352.444 192.961 C 352.485 191.697 353.381 173.716 351.384 151.455 Z M 345.391 183.929 L 322.416 159.487 C 322.395 159.426 322.395 159.364 322.375 159.325 C 320.723 150.701 311.163 101.51 304.843 88.667 C 297.279 73.296 283.683 67.424 254.652 66.976 C 251.636 66.935 248.231 66.874 244.521 66.834 C 212.781 66.405 159.635 65.712 135.599 61.798 C 118.17 58.965 103.94 58.495 92.116 60.371 C 75.747 62.981 63.984 70.176 57.155 81.776 C 44.658 102.997 39.582 125.789 37.523 141.16 C 35.668 155.023 35.851 165.338 35.973 168.702 C 35.973 168.743 35.973 168.763 35.973 168.803 L 26.045 187.415 C 26.025 186.784 26.025 186.111 26.004 185.439 C 25.903 177.814 26.045 167.845 26.881 156.858 C 28.594 134.698 33.67 103.691 48.022 81.776 C 75.584 39.659 133.112 7.327 179.001 7.327 C 181.039 7.327 183.037 7.388 185.015 7.511 C 241.097 11.159 289.676 38.925 325.494 87.831 C 342.883 111.581 345.329 157.53 345.411 179.852 C 345.411 181.3 345.391 182.666 345.391 183.929 Z"
    />
  </g>
  <g class="eyebrowLeft">
    <path
      d="M 145.833 206.191 C 127.424 203.48 93.217 198.608 73.097 213.57 C 63.474 221.583 74.238 198.526 88.039 192.879 C 101.861 187.232 134.886 190.371 140.207 191.86 C 147.362 193.858 148.28 200.545 148.239 204.152 C 148.198 205.417 147.076 206.375 145.833 206.191 Z"
    />
    <path
      d="M 70.12 218.872 C 69.488 218.872 68.855 218.749 68.204 218.422 C 66.614 217.648 65.716 216.017 65.778 214.061 C 65.9 210.575 69.141 205.233 72.138 201.381 C 74.687 198.119 79.946 192.247 86.652 189.496 C 101.228 183.522 135.029 186.62 141.164 188.354 C 148.076 190.291 151.949 196.059 151.847 204.193 C 151.827 205.845 151.093 207.394 149.829 208.454 C 148.565 209.514 146.914 210.004 145.283 209.759 C 136.598 208.474 123.47 206.538 110.178 206.864 C 95.133 207.211 83.412 210.431 75.319 216.405 C 74.299 217.261 72.322 218.872 70.12 218.872 Z M 112.788 193.246 C 103.9 193.246 94.909 193.98 89.405 196.223 C 85.654 197.751 81.597 201.116 78.01 205.641 C 77.704 206.028 77.418 206.416 77.133 206.783 C 85.777 202.318 96.805 199.912 110.015 199.606 C 123.022 199.3 135.64 201.013 144.529 202.318 C 144.161 198.567 142.388 196.223 139.229 195.325 C 136.435 194.571 124.713 193.246 112.788 193.246 Z M 146.343 202.603 C 146.343 202.603 146.343 202.603 146.343 202.603 C 146.343 202.603 146.343 202.603 146.343 202.603 Z"
    />
  </g>
  <g class="eyebrowRight">
    <path
      d="M 208.5 204.336 C 208.275 206.253 209.946 207.863 211.863 207.557 C 230.455 204.622 272.124 204.092 287.025 218.566 C 302.967 234.079 288.147 203.337 273.51 195.774 C 258.873 188.21 225.868 190.046 216.838 191.656 C 210.803 192.757 209.009 199.791 208.5 204.336 Z"
    />
    <path
      d="M 293.08 226.536 C 290.552 226.536 287.841 224.457 284.478 221.195 C 278.566 215.446 266.803 211.635 250.494 210.166 C 235.551 208.821 220.629 209.86 212.413 211.165 C 210.375 211.491 208.356 210.859 206.848 209.412 C 205.36 207.985 204.647 205.988 204.871 203.928 C 205.91 194.857 209.926 189.231 216.185 188.109 C 224.095 186.702 258.955 184.215 275.161 192.573 C 281.97 196.08 287.74 203.236 290.573 207.17 C 292.265 209.514 297.749 217.547 297.525 222.113 C 297.423 224.029 296.383 225.558 294.752 226.211 C 294.181 226.414 293.631 226.536 293.08 226.536 Z M 235.816 202.256 C 240.75 202.256 245.928 202.461 251.146 202.93 C 266.517 204.316 278.097 207.638 285.68 212.837 C 285.273 212.245 284.845 211.635 284.396 211.023 C 280.298 205.396 275.711 201.034 271.839 199.015 C 258.261 192.002 225.888 193.735 217.469 195.244 C 214.003 195.855 212.699 200.545 212.21 203.827 C 218.183 202.95 226.541 202.256 235.816 202.256 Z M 212.087 204.744 C 212.087 204.744 212.087 204.744 212.087 204.744 C 212.087 204.744 212.087 204.744 212.087 204.744 Z M 208.5 204.336 Z"
    />
  </g>
  <g class="eyeLeft">
    <circle cx="112.889" cy="243.192" r="13.638"></circle>
    <path
      d="M 112.91 260.459 C 112.768 260.459 112.624 260.459 112.482 260.459 C 107.875 260.357 103.574 258.44 100.394 255.117 C 97.212 251.774 95.521 247.412 95.622 242.784 C 95.725 238.176 97.641 233.875 100.963 230.695 C 104.307 227.515 108.67 225.823 113.298 225.925 C 117.905 226.026 122.206 227.943 125.386 231.266 C 128.566 234.609 130.259 238.971 130.156 243.599 C 130.055 248.207 128.139 252.508 124.815 255.688 C 121.574 258.787 117.354 260.459 112.91 260.459 Z M 112.889 233.182 C 110.301 233.182 107.875 234.161 105.979 235.954 C 104.042 237.81 102.941 240.296 102.88 242.967 C 102.819 245.638 103.798 248.186 105.632 250.123 C 107.467 252.06 109.974 253.161 112.645 253.221 C 118.17 253.344 122.757 248.981 122.899 243.457 C 122.96 240.786 121.981 238.238 120.147 236.301 C 118.312 234.364 115.804 233.263 113.134 233.203 C 113.053 233.182 112.971 233.182 112.889 233.182 Z"
    />
  </g>
  <g class="eyeRight">
    <circle cx="244.603" cy="246.352" r="13.638"></circle>
    <path
      d="M 244.603 263.618 C 244.46 263.618 244.318 263.618 244.174 263.618 C 234.655 263.394 227.092 255.464 227.336 245.943 C 227.437 241.336 229.354 237.035 232.677 233.855 C 236.021 230.675 240.382 228.982 245.01 229.085 C 249.618 229.187 253.919 231.102 257.099 234.426 C 260.28 237.769 261.971 242.132 261.87 246.759 C 261.625 256.137 253.939 263.618 244.603 263.618 Z M 244.583 236.342 C 241.993 236.342 239.567 237.32 237.671 239.115 C 235.735 240.97 234.634 243.457 234.573 246.128 C 234.45 251.652 238.813 256.238 244.338 256.382 C 244.419 256.382 244.501 256.382 244.583 256.382 C 249.985 256.382 254.449 252.039 254.592 246.617 C 254.592 246.617 254.592 246.617 254.592 246.617 C 254.652 243.946 253.674 241.397 251.84 239.461 C 250.005 237.525 247.498 236.424 244.827 236.362 C 244.745 236.342 244.664 236.342 244.583 236.342 Z"
    />
  </g>
  <g class="earLeft">
    <path
      d="M 17.504 272.548 C 15.67 272.548 14.1 271.161 13.895 269.306 C 13.324 263.965 15.181 254.995 20.154 252.06 C 22.56 250.632 25.332 250.795 27.758 252.508 C 29.389 253.65 29.796 255.912 28.635 257.563 C 27.493 259.194 25.25 259.603 23.619 258.481 C 22.417 259.541 20.664 264.332 21.113 268.552 C 21.316 270.549 19.889 272.324 17.891 272.548 C 17.769 272.548 17.626 272.548 17.504 272.548 Z"
    />
    <path
      d="M 33.711 316.948 C 33.446 316.948 33.181 316.948 32.916 316.927 C 28.757 316.642 18.687 313.462 15.16 290.405 C 14.854 288.428 16.22 286.573 18.197 286.267 C 20.175 285.961 22.03 287.327 22.335 289.305 C 24.517 303.534 29.348 309.14 33.161 309.649 C 34.342 309.813 35.24 309.466 35.77 309.119 C 31.916 306.673 29.145 302.127 27.941 296.195 C 26.861 290.854 27.045 283.393 30.001 279.56 C 31.224 277.97 33.507 277.685 35.097 278.908 C 36.687 280.131 36.973 282.414 35.749 284.004 C 34.934 285.064 34.017 289.55 35.056 294.768 C 35.872 298.824 37.625 301.862 39.867 303.146 C 42.782 304.798 44.066 307.794 43.17 310.771 C 42.09 314.38 38.114 316.948 33.711 316.948 Z"
    />
  </g>
  <g class="earRight">
    <path
      d="M 350.976 293.402 C 350.67 293.402 350.345 293.362 350.018 293.28 C 348.082 292.75 346.94 290.752 347.47 288.835 C 350.039 279.438 351.037 269.857 350.283 261.865 C 349.529 253.833 347.368 251.244 346.797 250.959 C 344.861 251.366 342.924 250.123 342.517 248.166 C 342.088 246.208 343.332 244.273 345.288 243.864 C 347.898 243.314 350.426 244.17 352.424 246.27 C 358.703 252.896 359.579 272.018 354.482 290.731 C 354.034 292.342 352.586 293.402 350.976 293.402 Z"
    />
    <path
      d="M 328.368 324.369 C 324.985 324.369 323.72 322.411 323.333 321.514 C 321.804 318.069 324.882 314.645 327.756 312.034 C 337.603 303.065 334.403 293.606 329.958 287.245 C 328.816 285.594 329.225 283.332 330.856 282.19 C 332.507 281.048 334.769 281.456 335.911 283.087 C 338.949 287.449 340.824 292.138 341.334 296.623 C 342.047 302.963 340.091 308.998 335.626 314.277 C 335.911 314.115 336.196 313.93 336.482 313.747 C 340.436 311.178 343.067 308.121 343.678 305.328 C 344.107 303.37 346.064 302.148 348.02 302.575 C 349.977 303.004 351.2 304.961 350.772 306.918 C 349.509 312.544 344.983 316.703 341.416 319.191 C 337.44 321.962 332.69 323.981 329.346 324.307 C 328.98 324.348 328.674 324.369 328.368 324.369 Z"
    />
  </g>
  <g class="moustache">
    <path
      d="M 174.272 376.818 C 174.251 376.818 174.231 376.818 174.211 376.818 C 172.6 376.763 171.335 375.021 171.356 372.869 L 171.682 350.4 C 171.703 348.275 173.007 346.588 174.577 346.588 C 174.597 346.588 174.618 346.588 174.638 346.588 C 176.249 346.641 177.513 348.385 177.493 350.536 L 177.166 373.004 C 177.146 375.129 175.862 376.818 174.272 376.818 Z"
    />
    <path
      d="M 157.127 359.463 C 157.026 359.463 156.903 359.463 156.8 359.438 C 155.21 359.21 154.069 357.427 154.253 355.443 L 154.68 350.735 C 154.865 348.75 156.291 347.325 157.881 347.554 C 159.471 347.783 160.613 349.564 160.43 351.55 L 160.001 356.257 C 159.838 358.089 158.575 359.463 157.127 359.463 Z"
    />
    <path
      d="M 155.72 375.725 C 155.619 375.725 155.516 375.725 155.414 375.699 C 153.824 375.495 152.663 373.714 152.825 371.729 L 153.355 365.393 C 153.519 363.407 154.945 361.957 156.535 362.161 C 158.125 362.365 159.288 364.146 159.125 366.13 L 158.595 372.467 C 158.431 374.351 157.188 375.725 155.72 375.725 Z"
    />
    <path
      d="M 147.281 377.327 C 147.158 377.327 147.016 377.327 146.893 377.302 C 145.303 377.047 144.182 375.215 144.406 373.231 L 146.771 351.193 C 146.975 349.208 148.442 347.809 150.032 348.089 C 151.623 348.342 152.744 350.175 152.519 352.16 L 150.155 374.197 C 149.951 376.03 148.707 377.327 147.281 377.327 Z"
    />
    <path
      d="M 140.289 368.599 C 140.125 368.599 139.962 368.574 139.798 368.548 C 138.229 368.217 137.169 366.335 137.434 364.375 L 138.678 355.342 C 138.943 353.382 140.451 352.033 142.021 352.389 C 143.59 352.72 144.65 354.603 144.385 356.562 L 143.142 365.597 C 142.898 367.353 141.674 368.599 140.289 368.599 Z"
    />
    <path
      d="M 138.208 380.968 C 137.943 380.968 137.679 380.921 137.414 380.851 C 135.864 380.357 134.967 378.5 135.416 376.713 L 136.191 373.539 C 136.619 371.752 138.229 370.717 139.778 371.235 C 141.328 371.728 142.224 373.585 141.776 375.373 L 141.002 378.546 C 140.634 380.004 139.473 380.968 138.208 380.968 Z"
    />
    <path
      d="M 129.708 380.584 C 129.524 380.584 129.32 380.559 129.137 380.508 C 127.568 380.101 126.549 378.193 126.874 376.233 L 129.443 360.354 C 129.77 358.394 131.298 357.123 132.868 357.53 C 134.437 357.937 135.457 359.845 135.131 361.805 L 132.562 377.684 C 132.256 379.389 131.054 380.584 129.708 380.584 Z"
    />
    <path
      d="M 122.94 369.794 C 122.654 369.794 122.389 369.742 122.104 369.641 C 120.575 369.055 119.699 367.045 120.167 365.136 L 121.064 361.447 C 121.533 359.538 123.143 358.444 124.672 359.029 C 126.202 359.614 127.079 361.625 126.609 363.534 L 125.713 367.223 C 125.345 368.776 124.183 369.794 122.94 369.794 Z"
    />
    <path
      d="M 120.025 383.917 C 119.719 383.917 119.413 383.866 119.128 383.738 C 117.599 383.103 116.784 381.067 117.273 379.158 L 118.495 374.501 C 119.006 372.593 120.636 371.575 122.165 372.185 C 123.694 372.822 124.509 374.858 124.02 376.766 L 122.797 381.423 C 122.389 382.95 121.248 383.917 120.025 383.917 Z"
    />
    <path
      d="M 110.097 384.834 C 109.771 384.834 109.424 384.757 109.097 384.605 C 107.589 383.918 106.835 381.831 107.386 379.948 L 111.482 366.105 C 112.033 364.222 113.705 363.28 115.214 363.967 C 116.722 364.654 117.476 366.741 116.926 368.624 L 112.828 382.468 C 112.4 383.918 111.279 384.834 110.097 384.834 Z"
    />
    <path
      d="M 190.56 359.082 C 189.072 359.082 187.807 357.657 187.665 355.774 L 187.236 349.794 C 187.094 347.809 188.277 346.053 189.867 345.849 C 191.457 345.671 192.864 347.147 193.026 349.132 L 193.454 355.112 C 193.597 357.096 192.415 358.852 190.825 359.056 C 190.743 359.082 190.662 359.082 190.56 359.082 Z"
    />
    <path
      d="M 191.946 377.226 C 190.438 377.226 189.173 375.776 189.052 373.892 L 188.623 367.123 C 188.501 365.138 189.683 363.382 191.293 363.23 C 192.884 363.078 194.29 364.553 194.413 366.564 L 194.841 373.333 C 194.963 375.318 193.781 377.074 192.17 377.226 C 192.109 377.226 192.028 377.226 191.946 377.226 Z"
    />
    <path
      d="M 200.793 378.371 C 199.306 378.371 198.041 376.946 197.899 375.063 L 196.35 353.382 C 196.206 351.396 197.389 349.641 198.979 349.463 C 200.569 349.284 201.976 350.76 202.118 352.745 L 203.668 374.427 C 203.811 376.412 202.628 378.168 201.038 378.345 C 200.957 378.371 200.875 378.371 200.793 378.371 Z"
    />
    <path
      d="M 207.378 360.456 C 205.992 360.456 204.768 359.235 204.524 357.479 L 204.259 355.671 C 203.973 353.712 205.014 351.829 206.604 351.473 C 208.173 351.116 209.681 352.414 209.967 354.4 L 210.232 356.206 C 210.517 358.166 209.478 360.049 207.888 360.405 C 207.725 360.43 207.541 360.456 207.378 360.456 Z"
    />
    <path
      d="M 210.252 380.432 C 208.907 380.432 207.684 379.237 207.419 377.532 L 205.89 368.04 C 205.564 366.08 206.583 364.172 208.153 363.765 C 209.722 363.357 211.251 364.629 211.577 366.589 L 213.107 376.081 C 213.432 378.04 212.413 379.949 210.844 380.356 C 210.64 380.407 210.456 380.432 210.252 380.432 Z"
    />
    <path
      d="M 216.756 367.403 C 215.328 367.403 214.106 366.105 213.882 364.299 L 213.188 358.318 C 212.964 356.333 214.065 354.501 215.634 354.221 C 217.224 353.941 218.693 355.315 218.917 357.275 L 219.609 363.255 C 219.834 365.24 218.733 367.072 217.164 367.353 C 217.041 367.378 216.898 367.403 216.756 367.403 Z"
    />
    <path
      d="M 218.917 381.781 C 217.448 381.781 216.185 380.407 216.043 378.549 L 215.798 375.649 C 215.634 373.664 216.776 371.882 218.387 371.653 C 219.977 371.449 221.404 372.875 221.587 374.885 L 221.832 377.786 C 221.995 379.771 220.853 381.552 219.243 381.781 C 219.12 381.756 219.019 381.781 218.917 381.781 Z"
    />
    <path
      d="M 227.56 382.824 C 226.133 382.824 224.89 381.525 224.686 379.693 L 222.77 362.719 C 222.546 360.735 223.646 358.903 225.237 358.623 C 226.827 358.343 228.294 359.717 228.518 361.701 L 230.434 378.675 C 230.658 380.661 229.559 382.493 227.967 382.773 C 227.825 382.798 227.702 382.824 227.56 382.824 Z"
    />
    <path
      d="M 234.532 371.372 C 233.146 371.372 231.923 370.151 231.678 368.395 L 231.229 365.214 C 230.944 363.254 232.004 361.371 233.574 361.015 C 235.144 360.659 236.652 361.982 236.937 363.941 L 237.387 367.122 C 237.671 369.082 236.611 370.965 235.042 371.321 C 234.879 371.346 234.715 371.372 234.532 371.372 Z"
    />
    <path
      d="M 236.142 384.401 C 234.655 384.401 233.39 383.001 233.248 381.119 L 233.003 377.862 C 232.86 375.876 234.023 374.095 235.633 373.916 C 237.223 373.739 238.65 375.189 238.792 377.2 L 239.037 380.457 C 239.18 382.442 238.018 384.223 236.407 384.401 C 236.326 384.401 236.245 384.401 236.142 384.401 Z"
    />
    <path
      d="M 165.668 362.644 C 165.608 362.644 165.567 362.644 165.505 362.644 C 163.915 362.543 162.693 360.812 162.774 358.827 L 163.242 348.7 C 163.324 346.714 164.69 345.162 166.3 345.289 C 167.89 345.391 169.114 347.122 169.032 349.107 L 168.564 359.235 C 168.482 361.143 167.198 362.644 165.668 362.644 Z"
    />
    <path
      d="M 164.466 377.105 C 164.303 377.105 164.14 377.078 163.977 377.051 C 162.387 376.696 161.327 374.681 161.592 372.583 L 161.877 370.269 C 162.142 368.144 163.65 366.728 165.22 367.082 C 166.81 367.437 167.87 369.451 167.605 371.548 L 167.319 373.864 C 167.095 375.77 165.852 377.105 164.466 377.105 Z"
    />
    <path
      d="M 182.466 354.145 C 180.876 354.145 179.572 352.541 179.572 350.532 L 179.572 348.801 C 179.572 346.791 180.856 345.162 182.466 345.162 C 182.466 345.162 182.466 345.162 182.487 345.162 C 184.077 345.162 185.381 346.765 185.381 348.776 L 185.381 350.506 C 185.381 352.491 184.077 354.12 182.466 354.145 C 182.487 354.145 182.466 354.145 182.466 354.145 Z"
    />
    <path
      d="M 182.548 376.437 C 180.958 376.437 179.654 374.72 179.654 372.569 L 179.613 362.492 C 179.613 360.34 180.897 358.598 182.507 358.598 C 182.507 358.598 182.507 358.598 182.528 358.598 C 184.118 358.598 185.422 360.313 185.422 362.465 L 185.463 372.542 C 185.463 374.693 184.159 376.437 182.548 376.437 C 182.569 376.437 182.548 376.437 182.548 376.437 Z"
    />
    <path
      d="M 244.664 385.133 C 243.176 385.133 241.892 383.644 241.769 381.65 L 241.056 370.272 C 240.933 368.199 242.116 366.365 243.706 366.205 C 245.316 366.046 246.703 367.588 246.825 369.662 L 247.539 381.038 C 247.66 383.113 246.479 384.946 244.889 385.105 C 244.827 385.105 244.745 385.133 244.664 385.133 Z"
    />
  </g>
  <g class="soulPatch">
    <path
      d="M 177.594 445.827 C 175.984 445.827 174.7 444.523 174.7 442.933 L 174.7 427.847 C 174.7 426.237 176.004 424.953 177.594 424.953 C 179.184 424.953 180.49 426.257 180.49 427.847 L 180.49 442.933 C 180.509 444.523 179.205 445.827 177.594 445.827 Z"
    />
    <path
      d="M 186.014 435.431 C 184.403 435.431 183.119 434.126 183.119 432.535 L 183.119 427.888 C 183.119 426.278 184.424 424.993 186.014 424.993 C 187.624 424.993 188.908 426.298 188.908 427.888 L 188.908 432.535 C 188.929 434.146 187.624 435.431 186.014 435.431 Z"
    />
    <path
      d="M 186.014 444.42 C 184.403 444.42 183.119 443.116 183.119 441.526 L 183.119 440.669 C 183.119 439.059 184.424 437.775 186.014 437.775 C 187.624 437.775 188.908 439.079 188.908 440.669 L 188.908 441.526 C 188.929 443.116 187.624 444.42 186.014 444.42 Z"
    />
    <path
      d="M 194.433 436.939 C 192.823 436.939 191.539 435.634 191.539 434.045 L 191.539 426.216 C 191.539 424.606 192.843 423.322 194.433 423.322 C 196.044 423.322 197.328 424.626 197.328 426.216 L 197.328 434.045 C 197.328 435.634 196.044 436.939 194.433 436.939 Z"
    />
    <path
      d="M 168.605 432.535 C 166.994 432.535 165.709 431.231 165.709 429.641 L 165.709 427.909 C 165.709 426.298 167.014 425.013 168.605 425.013 C 170.195 425.013 171.499 426.318 171.499 427.909 L 171.499 429.641 C 171.52 431.231 170.215 432.535 168.605 432.535 Z"
    />
    <path
      d="M 168.605 444.42 C 166.994 444.42 165.709 443.116 165.709 441.526 L 165.709 437.958 C 165.709 436.348 167.014 435.064 168.605 435.064 C 170.195 435.064 171.499 436.368 171.499 437.958 L 171.499 441.526 C 171.52 443.116 170.215 444.42 168.605 444.42 Z"
    />
    <path
      d="M 159.9 437.224 C 158.289 437.224 157.005 435.92 157.005 434.33 L 157.005 427.358 C 157.005 425.748 158.31 424.463 159.9 424.463 C 161.51 424.463 162.794 425.768 162.794 427.358 L 162.794 434.33 C 162.815 435.94 161.51 437.224 159.9 437.224 Z"
    />
  </g>
  <g class="beard">
    <path
      d="M 176.963 511.286 C 176.942 511.286 176.922 511.286 176.901 511.286 C 175.291 511.246 174.026 509.92 174.067 508.31 L 174.373 495.528 C 174.414 493.918 175.739 492.653 177.35 492.694 C 178.96 492.735 180.224 494.06 180.184 495.671 L 179.878 508.453 C 179.816 510.043 178.532 511.286 176.963 511.286 Z"
    />
    <path
      d="M 167.711 493.571 C 167.69 493.571 167.67 493.571 167.67 493.571 C 166.059 493.551 164.796 492.226 164.816 490.615 L 164.958 481.4 C 164.979 479.79 166.304 478.526 167.914 478.547 C 169.525 478.567 170.788 479.892 170.768 481.503 L 170.626 490.717 C 170.585 492.307 169.301 493.571 167.711 493.571 Z"
    />
    <path
      d="M 166.531 509.359 C 166.511 509.359 166.49 509.359 166.47 509.359 C 164.859 509.318 163.596 507.993 163.637 506.383 L 163.799 499.982 C 163.84 498.372 165.165 497.129 166.776 497.148 C 168.386 497.189 169.65 498.514 169.61 500.124 L 169.446 506.526 C 169.385 508.116 168.101 509.359 166.531 509.359 Z"
    />
    <path
      d="M 188.623 507.985 C 188.602 507.985 188.582 507.985 188.561 507.985 C 186.951 507.945 185.687 506.62 185.727 505.009 L 185.87 498.731 C 185.911 497.16 187.195 495.897 188.765 495.897 C 188.785 495.897 188.806 495.897 188.826 495.897 C 190.437 495.938 191.7 497.263 191.659 498.873 L 191.517 505.152 C 191.476 506.742 190.192 507.985 188.623 507.985 Z"
    />
    <path
      d="M 188.756 493.808 C 187.145 493.808 185.861 492.502 185.861 490.912 L 185.861 481.637 C 185.861 480.027 187.166 478.743 188.756 478.743 C 190.346 478.743 191.651 480.047 191.651 481.637 L 191.651 490.912 C 191.651 492.502 190.346 493.808 188.756 493.808 Z"
    />
    <path
      d="M 199.651 488.964 C 199.651 488.964 199.651 488.964 199.651 488.964 C 198.041 488.964 196.736 487.659 196.757 486.049 L 196.777 481.85 C 196.777 480.259 198.082 478.954 199.672 478.954 C 199.672 478.954 199.692 478.954 199.692 478.954 C 201.303 478.954 202.588 480.259 202.588 481.869 L 202.567 486.069 C 202.547 487.68 201.243 488.964 199.651 488.964 Z"
    />
    <path
      d="M 200.162 507.291 C 200.142 507.291 200.121 507.291 200.121 507.291 C 198.511 507.27 197.246 505.945 197.266 504.335 L 197.43 494.733 C 197.451 493.143 198.755 491.879 200.325 491.879 C 200.345 491.879 200.366 491.879 200.366 491.879 C 201.976 491.899 203.24 493.224 203.219 494.835 L 203.057 504.437 C 203.036 506.027 201.752 507.291 200.162 507.291 Z"
    />
    <path
      d="M 210.864 491.633 C 209.437 491.633 208.173 490.573 207.99 489.105 L 206.889 480.767 C 206.685 479.177 207.806 477.729 209.396 477.505 C 210.986 477.302 212.434 478.423 212.658 480.013 L 213.759 488.351 C 213.962 489.941 212.842 491.388 211.251 491.613 C 211.129 491.633 211.006 491.633 210.864 491.633 Z"
    />
    <path
      d="M 212.066 503.56 C 210.64 503.56 209.376 502.5 209.192 501.032 L 208.806 498.117 C 208.601 496.527 209.722 495.079 211.312 494.855 C 212.902 494.651 214.35 495.773 214.574 497.363 L 214.962 500.278 C 215.166 501.868 214.044 503.316 212.454 503.54 C 212.331 503.56 212.21 503.56 212.066 503.56 Z"
    />
    <path
      d="M 219.773 482.95 C 218.346 482.95 217.103 481.91 216.898 480.443 L 216.45 477.242 C 216.226 475.652 217.327 474.184 218.917 473.96 C 220.507 473.736 221.975 474.837 222.199 476.427 L 222.647 479.627 C 222.871 481.217 221.77 482.685 220.18 482.91 C 220.038 482.95 219.895 482.95 219.773 482.95 Z"
    />
    <path
      d="M 221.139 494.366 C 219.712 494.366 218.468 493.306 218.264 491.858 L 217.857 488.923 C 217.633 487.333 218.754 485.866 220.344 485.661 C 221.934 485.437 223.401 486.558 223.606 488.148 L 224.013 491.084 C 224.237 492.674 223.116 494.142 221.526 494.346 C 221.404 494.366 221.281 494.366 221.139 494.366 Z"
    />
    <path
      d="M 233.936 495.112 C 232.591 495.112 231.388 494.175 231.103 492.809 L 230.532 490.098 C 230.206 488.528 231.225 486.998 232.774 486.672 C 234.344 486.347 235.873 487.366 236.199 488.915 L 236.77 491.626 C 237.096 493.196 236.077 494.725 234.527 495.051 C 234.324 495.092 234.14 495.112 233.936 495.112 Z"
    />
    <path
      d="M 231.523 485.443 C 230.177 485.443 228.975 484.568 228.69 483.293 L 226.671 474.406 C 226.344 472.941 227.344 471.514 228.914 471.19 C 230.483 470.885 232.012 471.817 232.359 473.283 L 234.377 482.17 C 234.703 483.635 233.704 485.063 232.135 485.386 C 231.931 485.424 231.727 485.443 231.523 485.443 Z"
    />
    <path
      d="M 242.463 485.091 C 241.292 485.091 240.218 484.343 239.854 483.172 L 236.477 472.409 C 236.016 470.969 236.821 469.435 238.26 468.993 C 239.7 468.533 241.234 469.339 241.676 470.778 L 245.052 481.542 C 245.513 482.98 244.708 484.516 243.268 484.957 C 243.019 485.052 242.731 485.091 242.463 485.091 Z"
    />
    <path
      d="M 251.532 478.069 C 250.472 478.069 249.453 477.478 248.942 476.479 L 245.497 469.65 C 244.784 468.223 245.355 466.47 246.782 465.757 C 248.208 465.043 249.962 465.613 250.675 467.041 L 254.12 473.87 C 254.834 475.296 254.264 477.05 252.836 477.763 C 252.409 477.968 251.959 478.069 251.532 478.069 Z"
    />
    <path
      d="M 257.931 467.848 C 256.83 467.848 255.77 467.217 255.281 466.157 L 253.834 462.955 C 253.161 461.488 253.814 459.775 255.281 459.124 C 256.75 458.45 258.461 459.103 259.114 460.57 L 260.562 463.771 C 261.234 465.239 260.581 466.952 259.114 467.604 C 258.747 467.767 258.34 467.848 257.931 467.848 Z"
    />
    <path
      d="M 154.15 507.617 C 153.967 507.617 153.784 507.597 153.6 507.556 C 152.03 507.25 150.991 505.721 151.317 504.152 L 153.417 493.347 C 153.723 491.777 155.251 490.758 156.821 491.063 C 158.39 491.369 159.431 492.899 159.105 494.468 L 157.005 505.273 C 156.72 506.659 155.496 507.617 154.15 507.617 Z"
    />
    <path
      d="M 157.739 488.459 C 157.575 488.459 157.412 488.438 157.25 488.418 C 155.66 488.153 154.6 486.665 154.865 485.075 L 155.537 481.058 C 155.802 479.468 157.31 478.408 158.881 478.673 C 160.471 478.938 161.531 480.427 161.266 482.017 L 160.592 486.033 C 160.368 487.46 159.146 488.459 157.739 488.459 Z"
    />
    <path
      d="M 147.076 491.141 C 146.873 491.141 146.669 491.12 146.445 491.08 C 144.876 490.733 143.896 489.184 144.243 487.614 L 146.445 477.625 C 146.791 476.055 148.341 475.077 149.91 475.424 C 151.48 475.77 152.458 477.32 152.112 478.889 L 149.91 488.878 C 149.625 490.224 148.422 491.141 147.076 491.141 Z"
    />
    <path
      d="M 144.385 502.032 C 144.202 502.032 143.999 502.011 143.795 501.97 C 142.224 501.645 141.205 500.115 141.532 498.546 L 142.021 496.181 C 142.347 494.612 143.876 493.593 145.445 493.918 C 147.016 494.244 148.035 495.773 147.709 497.344 L 147.22 499.708 C 146.934 501.094 145.731 502.032 144.385 502.032 Z"
    />
    <path
      d="M 137.659 484.205 C 137.313 484.205 136.946 484.144 136.599 484.002 C 135.112 483.41 134.378 481.718 134.968 480.23 L 135.763 478.232 C 136.355 476.744 138.047 476.01 139.535 476.601 C 141.023 477.192 141.757 478.885 141.166 480.372 L 140.371 482.371 C 139.902 483.512 138.822 484.205 137.659 484.205 Z"
    />
    <path
      d="M 134.071 496.915 C 133.826 496.915 133.601 496.894 133.357 496.833 C 131.808 496.445 130.87 494.855 131.257 493.306 L 132.521 488.332 C 132.909 486.782 134.499 485.845 136.048 486.232 C 137.598 486.62 138.535 488.21 138.148 489.759 L 136.884 494.733 C 136.537 496.038 135.355 496.915 134.071 496.915 Z"
    />
    <path
      d="M 123.693 490.26 C 123.224 490.26 122.735 490.137 122.286 489.893 C 120.879 489.118 120.37 487.345 121.144 485.959 L 123.142 482.35 C 123.917 480.943 125.691 480.434 127.076 481.208 C 128.483 481.984 128.993 483.757 128.218 485.143 L 126.221 488.751 C 125.712 489.73 124.712 490.26 123.693 490.26 Z"
    />
    <path
      d="M 128.997 479.538 C 128.467 479.538 127.917 479.378 127.428 479.016 C 126.082 478.039 125.694 476.041 126.551 474.542 L 127.387 473.089 C 128.264 471.591 130.057 471.16 131.403 472.113 C 132.748 473.089 133.136 475.087 132.28 476.586 L 131.444 478.039 C 130.873 479.016 129.936 479.538 128.997 479.538 Z"
    />
    <path
      d="M 114.458 484.47 C 113.888 484.47 113.317 484.307 112.807 483.961 C 111.482 483.043 111.156 481.249 112.073 479.924 L 117.577 471.973 C 118.495 470.648 120.289 470.322 121.614 471.24 C 122.939 472.157 123.265 473.951 122.347 475.276 L 116.844 483.227 C 116.293 484.042 115.376 484.47 114.458 484.47 Z"
    />
    <path
      d="M 177.309 490.024 C 175.698 490.024 174.414 488.584 174.414 486.828 L 174.414 484.577 C 174.414 482.798 175.719 481.38 177.309 481.38 C 178.899 481.38 180.204 482.821 180.204 484.577 L 180.204 486.828 C 180.224 488.605 178.919 490.024 177.309 490.024 Z"
    />
    <path
      d="M 102.006 467.378 C 101.191 467.378 100.375 467.032 99.804 466.358 C 98.765 465.136 98.908 463.301 100.11 462.262 L 102.15 460.528 C 103.372 459.489 105.207 459.631 106.246 460.834 C 107.286 462.057 107.144 463.891 105.94 464.932 L 103.902 466.664 C 103.352 467.153 102.68 467.378 102.006 467.378 Z"
    />
    <path
      d="M 95.033 461.883 C 94.503 461.883 93.953 461.741 93.464 461.414 C 92.118 460.537 91.731 458.744 92.587 457.398 L 93.423 456.094 C 94.3 454.748 96.093 454.361 97.439 455.217 C 98.784 456.094 99.172 457.887 98.316 459.233 L 97.48 460.537 C 96.909 461.414 95.972 461.883 95.033 461.883 Z"
    />
    <path
      d="M 266.088 461.854 C 264.987 461.854 263.927 461.222 263.437 460.162 L 261.991 456.962 C 261.317 455.494 261.97 453.782 263.437 453.129 C 264.905 452.457 266.618 453.108 267.27 454.577 L 268.718 457.777 C 269.39 459.245 268.738 460.957 267.27 461.61 C 266.904 461.773 266.495 461.854 266.088 461.854 Z"
    />
    <path
      d="M 111.898 471.514 C 111.551 471.514 111.183 471.452 110.838 471.31 C 109.349 470.719 108.615 469.026 109.207 467.539 L 110.002 465.54 C 110.592 464.053 112.284 463.318 113.773 463.91 C 115.261 464.501 115.994 466.193 115.404 467.681 L 114.609 469.679 C 114.139 470.82 113.059 471.514 111.898 471.514 Z"
    />
  </g>
  <path
    d="M 176.004 336.642 C 175.78 336.642 175.575 336.62 175.351 336.58 C 166.361 334.948 160.531 331.748 157.004 326.489 C 149.89 315.908 153.458 298.764 159.39 270.387 C 160.633 264.413 162.039 257.667 163.446 250.49 C 163.833 248.533 165.729 247.249 167.706 247.636 C 169.663 248.023 170.947 249.919 170.561 251.896 C 169.133 259.114 167.728 265.902 166.485 271.896 C 161.143 297.521 157.595 314.441 163.018 322.473 C 165.382 326.001 169.726 328.222 176.656 329.465 C 178.633 329.832 179.938 331.708 179.571 333.686 C 179.266 335.418 177.737 336.642 176.004 336.642 Z"
  />
  <path
    d="M 174.006 412.028 C 171.091 412.028 168.564 411.968 166.524 411.906 C 155.944 411.539 145.67 410.418 137.576 408.746 C 125.426 406.26 122.511 403.506 121.37 401.651 C 120.33 399.94 120.86 397.717 122.572 396.657 C 124.244 395.617 126.445 396.127 127.506 397.758 C 127.73 397.982 130.013 399.899 140.226 401.875 C 148.054 403.385 157.901 404.383 167.93 404.69 C 192.985 405.424 215.429 401.917 229.537 395.047 C 231.33 394.171 233.512 394.924 234.389 396.719 C 235.265 398.512 234.511 400.694 232.717 401.57 C 214.391 410.498 189.132 412.028 174.006 412.028 Z M 127.566 397.861 C 127.566 397.861 127.566 397.861 127.566 397.861 C 127.566 397.861 127.566 397.861 127.566 397.861 Z"
  />
  <path
    d="M 368.222 285.942 C 365.429 303.941 359.742 321.881 354.075 330.546 C 346.532 342.104 336.665 346.101 329.734 347.405 C 325.922 348.139 322.537 348.139 320.112 347.975 C 319.296 353.235 317.38 363.734 313.262 377.393 C 310.286 387.3 305.781 399.94 299.216 413.7 C 296.871 418.634 294.242 423.709 291.327 428.846 C 287.678 435.309 283.539 441.893 278.913 448.437 C 261.808 472.595 247.191 487.721 231.554 497.506 C 215.798 507.353 198.388 512 177.043 512 C 175.841 512 174.618 511.981 173.394 511.959 C 161.897 511.674 150.257 508.74 138.8 503.194 C 128.77 498.322 118.841 491.472 109.321 482.807 C 97.05 471.616 85.469 457.387 76.419 442.485 C 73.973 438.469 71.73 434.412 69.691 430.355 C 69.487 429.927 69.262 429.519 69.06 429.091 C 53.402 397.432 47.939 369.136 44.188 342.818 C 43.374 343.062 42.476 343.287 41.497 343.45 C 37.277 344.122 30.714 343.756 23.354 338.19 C 16.953 333.339 9.737 314.482 5.741 299.029 C 2.417 286.125 -2.271 262.213 3.805 247.004 C 7.066 238.829 12.998 234.406 21.05 233.999 C 21.275 233.978 21.499 233.978 21.723 233.978 C 22.886 233.957 24.108 234.018 25.372 234.141 C 26.861 234.304 28.044 235.364 28.451 236.709 C 28.594 237.157 28.634 237.648 28.572 238.137 C 28.533 238.422 28.471 238.686 28.389 238.932 C 27.941 240.216 26.779 241.153 25.413 241.317 C 25.148 241.358 24.862 241.358 24.558 241.317 C 17.565 240.522 13.121 243.173 10.531 249.654 C 6.658 259.358 7.473 276.666 12.753 297.173 C 17.482 315.501 24.21 329.71 27.717 332.381 C 37.339 339.678 44.412 334.908 44.902 334.561 C 45.921 333.746 47.267 333.583 48.47 334.052 C 49.672 334.541 50.508 335.662 50.692 336.946 C 55.38 370.93 60.987 396.514 75.705 426.156 C 75.848 426.462 76.011 426.767 76.174 427.093 C 76.194 427.155 76.235 427.216 76.255 427.257 C 81.575 437.836 89.996 451.149 100.881 463.747 C 102.085 465.154 103.349 466.561 104.612 467.927 C 105.468 468.864 106.345 469.782 107.222 470.679 C 108.567 472.064 109.933 473.43 111.339 474.776 C 112.175 475.591 113.032 476.387 113.888 477.182 C 115.315 478.507 116.783 479.791 118.271 481.055 C 119.29 481.91 120.33 482.768 121.37 483.582 C 122.899 484.806 124.449 485.989 126.038 487.13 C 127.934 488.495 129.869 489.821 131.848 491.064 C 133.56 492.145 135.292 493.184 137.047 494.162 C 138.759 495.12 140.491 496.017 142.246 496.853 C 144.018 497.689 145.813 498.485 147.627 499.199 C 149.074 499.768 150.521 500.299 151.989 500.809 C 153.824 501.421 155.699 501.971 157.575 502.46 C 159.716 503.01 161.876 503.459 164.078 503.806 C 165.994 504.112 167.911 504.355 169.867 504.498 C 171.091 504.601 172.334 504.662 173.599 504.682 C 173.802 504.682 174.006 504.703 174.21 504.703 C 176.187 504.743 178.124 504.743 180.02 504.703 C 182.017 504.662 183.996 504.579 185.932 504.437 C 187.908 504.295 189.845 504.112 191.742 503.887 C 193.719 503.643 195.656 503.358 197.552 502.99 C 199.53 502.623 201.466 502.195 203.382 501.726 C 205.339 501.238 207.255 500.667 209.131 500.055 C 211.006 499.423 212.882 498.749 214.716 497.995 C 219.732 495.937 224.584 493.367 229.333 490.228 C 230.638 489.373 231.942 488.476 233.248 487.518 C 235.306 486.029 237.346 484.439 239.363 482.727 C 240.953 481.381 242.543 479.995 244.114 478.507 C 245.54 477.182 246.946 475.795 248.374 474.368 C 249.78 472.941 251.207 471.453 252.635 469.904 C 253.388 469.088 254.123 468.274 254.876 467.416 C 256.141 465.99 257.425 464.501 258.71 462.972 C 263.397 457.387 268.148 451.149 273.061 444.237 C 280.828 433.27 287.107 422.2 292.162 411.763 C 292.306 411.478 292.448 411.192 292.571 410.908 C 292.571 410.908 292.571 410.908 292.571 410.908 C 299.013 397.473 303.415 385.138 306.33 375.477 C 312.018 356.639 313.446 343.654 313.466 343.532 C 313.568 342.492 314.119 341.554 314.975 340.964 C 315.83 340.371 316.89 340.147 317.909 340.393 C 317.95 340.393 322.66 341.453 328.735 340.23 C 336.685 338.639 343.208 334.052 348.08 326.571 C 353.157 318.804 358.519 301.638 361.129 284.821 C 364.105 265.596 362.962 250.103 358.071 243.397 C 356.378 241.072 353.32 238.238 346.206 240.175 C 346.206 240.175 346.206 240.175 346.185 240.175 C 346.165 240.175 346.125 240.195 346.104 240.195 C 346.083 240.195 346.042 240.216 346.023 240.216 C 346.001 240.216 345.961 240.236 345.94 240.236 C 345.92 240.236 345.9 240.257 345.88 240.257 C 345.839 240.257 345.799 240.277 345.737 240.277 C 345.737 240.277 345.716 240.277 345.716 240.277 C 345.675 240.277 345.635 240.298 345.613 240.298 C 345.594 240.298 345.574 240.298 345.574 240.298 C 345.533 240.298 345.513 240.298 345.472 240.298 C 345.389 240.298 345.309 240.298 345.227 240.298 L 345.206 240.298 C 345.104 240.298 345.023 240.298 344.921 240.277 C 344.88 240.277 344.82 240.257 344.779 240.257 C 344.738 240.257 344.697 240.236 344.656 240.236 C 344.594 240.236 344.553 240.216 344.493 240.216 C 344.453 240.216 344.411 240.195 344.351 240.195 C 344.249 240.175 344.168 240.155 344.066 240.115 C 344.025 240.094 343.963 240.094 343.922 240.074 C 343.841 240.031 343.739 239.992 343.657 239.951 C 343.617 239.931 343.575 239.91 343.534 239.889 C 343.454 239.848 343.392 239.807 343.31 239.768 C 343.291 239.768 343.291 239.747 343.271 239.747 C 343.189 239.706 343.108 239.645 343.046 239.583 C 343.006 239.564 342.965 239.522 342.944 239.503 C 342.924 239.503 342.903 239.482 342.903 239.462 C 342.862 239.421 342.822 239.4 342.781 239.359 C 342.741 239.32 342.679 239.279 342.638 239.238 C 342.597 239.196 342.577 239.176 342.536 239.135 C 342.455 239.055 342.394 238.972 342.332 238.891 C 342.291 238.85 342.272 238.81 342.231 238.747 C 342.189 238.708 342.17 238.667 342.148 238.605 C 342.088 238.503 342.026 238.422 341.986 238.32 C 341.965 238.279 341.946 238.219 341.924 238.177 C 341.905 238.116 341.863 238.055 341.843 237.993 C 341.823 237.952 341.823 237.913 341.802 237.872 C 341.782 237.85 341.782 237.81 341.782 237.79 C 341.762 237.75 341.762 237.709 341.741 237.667 C 341.741 237.667 341.741 237.667 341.741 237.648 C 341.7 237.504 341.66 237.341 341.638 237.2 C 341.638 237.138 341.619 237.097 341.619 237.036 C 341.619 236.974 341.599 236.914 341.599 236.853 C 341.599 236.75 341.599 236.629 341.599 236.526 C 341.599 236.526 341.599 236.526 341.599 236.526 C 341.599 236.485 341.599 236.424 341.619 236.383 L 341.619 236.261 L 341.619 236.241 C 341.802 234.835 342.801 233.59 344.249 233.183 C 344.677 233.061 345.104 232.958 345.513 232.856 C 346.818 232.551 348.04 232.388 349.203 232.306 C 349.223 232.306 349.223 232.306 349.223 232.306 C 356.766 231.777 361.331 235.528 363.962 239.095 C 372.197 250.551 370.159 273.363 368.222 285.942 Z"
  />
</svg>
